<svg width="66" height="46" viewBox="0 0 66 46" fill="none" xmlns="http://www.w3.org/2000/svg">
<path fill-rule="evenodd" clip-rule="evenodd" d="M0 3C0 1.34315 1.34315 0 3 0H63C64.6569 0 66 1.34315 66 3V43C66 44.6569 64.6569 46 63 46H3C1.34315 46 0 44.6569 0 43V3Z" fill="#016FD0"/>
<path fill-rule="evenodd" clip-rule="evenodd" d="M12.8208 34.7899V24.5288H23.7431L24.9149 26.0484L26.1255 24.5288H65.7708V34.0822C65.7708 34.0822 64.734 34.7796 63.5349 34.7899H41.5825L40.2613 33.1724V34.7899H35.9318V32.0287C35.9318 32.0287 35.3404 32.4142 34.0618 32.4142H32.5881V34.7899H26.0329L24.8627 33.2377L23.6746 34.7899H12.8208Z" fill="white"/>
<path fill-rule="evenodd" clip-rule="evenodd" d="M0.065918 16.7953L2.52894 11.0835H6.78847L8.18627 14.283V11.0835H13.4813L14.3134 13.396L15.1201 11.0835H38.8891V12.2461C38.8891 12.2461 40.1386 11.0835 42.1921 11.0835L49.9043 11.1103L51.278 14.268V11.0835H55.7091L56.9287 12.8973V11.0835H61.4005V21.3445H56.9287L55.7599 19.5249V21.3445H49.2496L48.5949 19.727H46.8447L46.2007 21.3445H41.7856C40.0186 21.3445 38.8891 20.2057 38.8891 20.2057V21.3445H32.2323L30.911 19.727V21.3445H6.15745L5.5032 19.727H3.75859L3.10896 21.3445H0.065918L0.065918 16.7953Z" fill="white"/>
<path fill-rule="evenodd" clip-rule="evenodd" d="M0.0786133 20.0318L3.40069 12.3486H5.91924L9.23814 20.0318H7.02766L6.41787 18.4933H2.85442L2.24146 20.0318H0.0786133ZM5.71598 16.8252L4.62979 14.1367L3.54043 16.8252H5.71598Z" fill="#016FD0"/>
<path fill-rule="evenodd" clip-rule="evenodd" d="M9.4668 20.0303V12.3472L12.5403 12.3585L14.328 17.3121L16.0728 12.3472H19.1218V20.0303H17.1908V14.3691L15.1439 20.0303H13.4504L11.3978 14.3691V20.0303H9.4668Z" fill="#016FD0"/>
<path fill-rule="evenodd" clip-rule="evenodd" d="M20.4429 20.0303V12.3472H26.744V14.0658H22.3942V15.38H26.6424V16.9975H22.3942V18.3623H26.744V20.0303H20.4429Z" fill="#016FD0"/>
<path fill-rule="evenodd" clip-rule="evenodd" d="M27.8623 20.0318V12.3486H32.1594C33.5832 12.3486 34.859 13.2244 34.859 14.8412C34.859 16.2234 33.7834 17.1136 32.7406 17.2012L35.2814 20.0318H32.9216L30.6064 17.3022H29.7933V20.0318H27.8623ZM32.0006 14.0672H29.7933V15.6847H32.0292C32.4162 15.6847 32.9153 15.3864 32.9153 14.876C32.9153 14.4792 32.5301 14.0672 32.0006 14.0672Z" fill="#016FD0"/>
<path fill-rule="evenodd" clip-rule="evenodd" d="M37.6186 20.0303H35.647V12.3472H37.6186V20.0303Z" fill="#016FD0"/>
<path fill-rule="evenodd" clip-rule="evenodd" d="M42.2935 20.0303H41.868C39.8088 20.0303 38.5586 18.4166 38.5586 16.2203C38.5586 13.9698 39.7948 12.3472 42.3952 12.3472H44.5294V14.1669H42.3171C41.2615 14.1669 40.515 14.9863 40.515 16.2393C40.515 17.7272 41.3686 18.3522 42.5984 18.3522H43.1066L42.2935 20.0303Z" fill="#016FD0"/>
<path fill-rule="evenodd" clip-rule="evenodd" d="M43.1733 20.0318L46.4954 12.3486H49.014L52.3329 20.0318H50.1224L49.5126 18.4933H45.9491L45.3362 20.0318H43.1733ZM48.8107 16.8252L47.7245 14.1367L46.6352 16.8252H48.8107Z" fill="#016FD0"/>
<path fill-rule="evenodd" clip-rule="evenodd" d="M52.5586 20.0303V12.3472H55.0136L58.1483 17.1744V12.3472H60.0793V20.0303H57.7037L54.4896 15.0767V20.0303H52.5586Z" fill="#016FD0"/>
<path fill-rule="evenodd" clip-rule="evenodd" d="M14.1421 33.4756V25.7925H20.4432V27.5111H16.0934V28.8253H20.3416V30.4428H16.0934V31.8076H20.4432V33.4756H14.1421Z" fill="#016FD0"/>
<path fill-rule="evenodd" clip-rule="evenodd" d="M45.0176 33.4756V25.7925H51.3187V27.5111H46.9689V28.8253H51.1968V30.4428H46.9689V31.8076H51.3187V33.4756H45.0176Z" fill="#016FD0"/>
<path fill-rule="evenodd" clip-rule="evenodd" d="M20.6878 33.4756L23.7558 29.6814L20.6147 25.7925H23.0475L24.9182 28.1966L26.7952 25.7925H29.1327L26.033 29.6341L29.1066 33.4756H26.6742L24.8579 31.1094L23.0857 33.4756H20.6878Z" fill="#016FD0"/>
<path fill-rule="evenodd" clip-rule="evenodd" d="M29.3359 33.4771V25.7939H33.6013C35.3515 25.7939 36.3739 26.916 36.3739 28.3782C36.3739 30.1432 35.0703 31.0508 33.3504 31.0508H31.3177V33.4771H29.3359ZM33.4584 27.5315H31.3177V29.3006H33.452C34.016 29.3006 34.4112 28.9288 34.4112 28.4161C34.4112 27.8702 34.014 27.5315 33.4584 27.5315Z" fill="#016FD0"/>
<path fill-rule="evenodd" clip-rule="evenodd" d="M37.2124 33.4756V25.7925H41.5095C42.9333 25.7925 44.2091 26.6683 44.2091 28.2851C44.2091 29.6672 43.1335 30.5575 42.0907 30.645L44.6315 33.4756H42.2717L39.9564 30.7461H39.1434V33.4756H37.2124ZM41.3507 27.5111H39.1434V29.1286H41.3793C41.7663 29.1286 42.2654 28.8303 42.2654 28.3198C42.2654 27.9231 41.8802 27.5111 41.3507 27.5111Z" fill="#016FD0"/>
<path fill-rule="evenodd" clip-rule="evenodd" d="M52.213 33.4756V31.8076H56.0775C56.6493 31.8076 56.8969 31.5002 56.8969 31.1631C56.8969 30.8401 56.6501 30.5136 56.0775 30.5136H54.3312C52.8132 30.5136 51.9678 29.5936 51.9678 28.2124C51.9678 26.9805 52.742 25.7925 54.9977 25.7925H58.758L57.945 27.5212H54.6928C54.0711 27.5212 53.8797 27.8457 53.8797 28.1556C53.8797 28.4741 54.1162 28.8253 54.5911 28.8253H56.4205C58.1127 28.8253 58.8469 29.7801 58.8469 31.0304C58.8469 32.3747 58.0287 33.4756 56.3284 33.4756H52.213Z" fill="#016FD0"/>
<path fill-rule="evenodd" clip-rule="evenodd" d="M59.3004 33.4756V31.8076H63.1649C63.7367 31.8076 63.9843 31.5002 63.9843 31.1631C63.9843 30.8401 63.7375 30.5136 63.1649 30.5136H61.4186C59.9006 30.5136 59.0552 29.5936 59.0552 28.2124C59.0552 26.9805 59.8294 25.7925 62.0851 25.7925H65.8454L65.0324 27.5212H61.7802C61.1585 27.5212 60.9671 27.8457 60.9671 28.1556C60.9671 28.4741 61.2036 28.8253 61.6785 28.8253H63.5079C65.2001 28.8253 65.9344 29.7801 65.9344 31.0304C65.9344 32.3747 65.1161 33.4756 63.4158 33.4756H59.3004Z" fill="#016FD0"/>
</svg>
