<svg width="70" height="50" viewBox="0 0 70 50" fill="none" xmlns="http://www.w3.org/2000/svg">
<rect width="70" height="50" rx="3" fill="white"/>
<rect width="70" height="50" rx="6.63158" fill="#133B63"/>
<mask id="mask0_7942_28705" style="mask-type:alpha" maskUnits="userSpaceOnUse" x="0" y="0" width="70" height="50">
<rect width="70" height="50" rx="3" fill="white"/>
</mask>
<g mask="url(#mask0_7942_28705)">
</g>
<path d="M11.2143 15.7057C10.5195 15.7988 9.87948 16.0509 9.36784 16.538C9.24214 16.6576 8.84483 17.0519 9.0751 17.2328C9.29851 17.4084 9.98857 17.2852 10.2665 17.2852H12.7037C13.0477 17.2852 13.4972 17.3608 13.8294 17.2711C14.3316 17.1353 13.59 16.4714 13.4258 16.3483C12.8091 15.8861 11.9967 15.601 11.2143 15.7057ZM11.2594 17.97C10.1155 18.1177 9.10019 18.3707 8.14516 19.0497C7.53508 19.4836 6.99135 20.0648 6.61113 20.7038C4.66114 23.9805 6.44864 28.4141 10.3116 29.2187C10.8894 29.3391 11.4844 29.3987 12.0718 29.3295C12.6802 29.258 13.2624 29.1611 13.832 28.923C14.797 28.5195 15.6394 27.8844 16.2622 27.0526C16.4525 26.7985 16.8743 26.3144 16.5656 26.0012C16.4169 25.8502 16.1218 25.8725 15.9703 26.0063C15.2622 26.6321 14.8393 27.2816 13.9223 27.6803C12.0748 28.4837 9.92845 27.8288 8.69968 26.2979C6.26212 23.2609 9.12561 18.6675 12.9745 19.3547C13.9252 19.5245 14.7362 19.9917 15.4117 20.6594C15.6592 20.904 15.9724 21.5092 16.4004 21.3249C16.6585 21.2138 16.6633 20.9217 16.5532 20.7038C16.3298 20.2613 15.9569 19.8435 15.5923 19.509C14.4974 18.5045 12.785 17.7729 11.2594 17.97ZM48.8109 21.3253C49.3787 21.8213 49.8246 22.5605 50.3003 23.1456C51.1822 24.2301 52.1025 25.2871 53.0205 26.3422C53.35 26.7207 53.6944 27.0825 54.0333 27.4515C54.2057 27.6389 54.4328 27.8766 54.7185 27.8434C54.9085 27.8214 54.9333 27.6056 54.945 27.4522C54.978 27.0126 54.9491 26.561 54.9491 26.1203C54.9491 24.3906 55.0782 22.6926 55.1766 20.9702C55.1879 20.7713 55.2118 20.5076 55.3679 20.3627C55.5571 20.1868 56.0955 20.2812 55.8698 19.8299C55.776 19.6421 55.3855 19.7693 55.2199 19.7712C54.6485 19.778 53.9738 19.6557 53.4173 19.7343C53.225 19.7614 53.1668 20.0472 53.2805 20.1886C53.4425 20.3899 53.893 20.2158 54.1191 20.452C54.5465 20.8993 54.3267 22.0432 54.3664 22.6129C54.431 23.5421 54.4075 24.4772 54.4075 25.4099C53.633 24.5352 52.9221 23.6017 52.1783 22.7017C51.6633 22.0785 51.1475 21.4561 50.6275 20.837C50.3707 20.5311 50.0787 19.9988 49.7136 19.8171C49.3101 19.6163 48.4927 19.7714 48.0436 19.7714C47.7591 19.7714 46.9435 19.5617 46.9639 19.9927C46.9784 20.2989 47.3785 20.2253 47.5923 20.3143C47.8942 20.4399 48.0893 20.7232 48.2029 21.0146C48.3857 21.4822 48.3144 22.0329 48.3144 22.5241C48.3144 23.5909 48.2246 24.6552 48.2241 25.7207C48.2241 26.1157 48.2318 27.0313 47.7721 27.2034C47.6266 27.2579 47.43 27.2344 47.2763 27.2364C47.0706 27.2391 46.7937 27.2703 46.5993 27.1973C46.036 26.9856 45.8768 26.1668 45.688 25.6763C45.1331 24.2351 44.7027 22.7431 44.2072 21.2809C43.9978 20.663 43.838 19.9465 43.5302 19.3718C43.166 19.4927 42.8642 19.7681 42.4921 19.9023C42.3487 19.954 42.0809 19.9838 41.9825 20.1072C41.8853 20.229 42.0243 20.4271 42.0017 20.5706C41.9428 20.9455 41.737 21.3262 41.6038 21.6805C41.0776 23.0805 40.5412 24.4808 39.9456 25.8539C39.7492 26.3067 39.5615 26.8748 39.1071 27.141C38.9146 27.2537 38.6191 27.1498 38.4573 27.2758C38.3525 27.3575 38.3517 27.6359 38.4573 27.7173C38.595 27.8235 38.8999 27.7207 39.0619 27.7187C39.6285 27.7121 40.2118 27.6845 40.777 27.7226C40.9734 27.7358 41.3551 27.8658 41.4022 27.5828C41.4994 26.9987 40.5933 27.4259 40.4563 26.875C40.3381 26.3997 40.7315 25.6774 40.8823 25.2323C40.9394 25.0638 40.9809 24.7999 41.1483 24.7008C41.3097 24.6051 41.5888 24.6551 41.77 24.6551C42.2758 24.6551 42.8489 24.5805 43.3477 24.6617C43.5846 24.7003 43.6072 24.9549 43.6668 25.1435C43.8068 25.5867 43.9495 26.0288 44.0781 26.4754C44.126 26.6414 44.2404 26.8771 44.1782 27.05C44.0738 27.3402 43.7408 27.1329 43.5574 27.2758C43.4523 27.3578 43.4523 27.6354 43.5574 27.7173C43.7743 27.8863 44.5992 27.7186 44.8842 27.7186H48.5852C48.9499 27.7186 49.3055 27.7239 49.6684 27.7554C49.8011 27.7669 49.9695 27.7751 50.0151 27.6232C50.1654 27.1212 49.621 27.3014 49.3534 27.1655C49.1083 27.0413 49.0077 26.7723 48.9661 26.5198C48.6913 24.8396 48.8109 23.0254 48.8109 21.3253ZM55.265 27.763C55.9854 27.761 56.708 27.7152 57.4315 27.7186C57.6242 27.7195 58.0092 27.8438 58.1717 27.7173C58.2768 27.6355 58.2768 27.3578 58.1717 27.2758C57.8914 27.0576 57.4518 27.3849 57.3159 26.875C57.1923 26.4117 57.5885 25.6215 57.7497 25.1879C57.8043 25.0419 57.8526 24.7918 57.992 24.7008C58.261 24.5251 58.9638 24.6551 59.282 24.6551C59.5455 24.6551 60.1883 24.54 60.3724 24.7581C60.6929 25.1383 60.789 25.9595 60.9257 26.431C60.9754 26.6022 61.0797 26.8256 61.0544 27.0063C61.016 27.2767 59.9143 27.2213 60.3923 27.6918C60.5574 27.854 60.9303 27.7241 61.1325 27.7192C61.8235 27.7026 62.5172 27.7175 63.2086 27.7186C63.3986 27.7189 63.8861 27.858 64.0197 27.6918C64.0946 27.5989 64.0923 27.3527 63.994 27.2758C63.8554 27.1681 63.5986 27.2509 63.4343 27.1854C63.0349 27.0261 62.8882 26.5701 62.7487 26.2091C62.1001 24.5311 61.5739 22.8059 60.9971 21.1034C60.8567 20.689 60.7136 20.2754 60.576 19.8602C60.5349 19.7369 60.5033 19.4778 60.3548 19.4314C60.2307 19.3926 60.098 19.5297 60.0041 19.5894C59.7559 19.747 59.4724 19.8706 59.1917 19.9603C59.0775 19.9968 58.8658 20.0156 58.8175 20.1452C58.7476 20.3322 58.8762 20.5721 58.799 20.7926C58.1681 22.6018 57.4563 24.415 56.6705 26.1647C56.5225 26.4942 56.3839 26.8482 56.077 27.0687C55.6139 27.4006 55.265 27.0566 55.265 27.763ZM19.9703 23.8116C20.9137 23.8116 21.7132 23.8892 21.9562 24.9215L22.4526 24.8771C22.4525 24.1833 22.4075 23.4872 22.4075 22.7905C22.4075 22.5067 22.4594 22.1526 22.0513 22.2199C21.8103 22.2597 21.7005 22.9072 21.5006 23.0929C21.1272 23.4397 20.4533 23.4117 19.9703 23.412C20.1615 22.3989 20.0154 21.2456 20.0154 20.2154C20.792 20.2154 21.6353 20.116 22.3172 20.5505C22.696 20.7919 23.0387 21.1438 23.3551 21.4585C23.4703 21.573 23.6266 21.8225 23.8082 21.8265C23.9707 21.83 24.0698 21.6933 24.0613 21.5467C24.0358 21.1115 23.8407 20.6382 23.7332 20.2154C23.6994 20.0823 23.6826 19.8579 23.5578 19.7728C23.3384 19.6233 22.5538 19.7714 22.2721 19.7714H18.7065C18.3567 19.7714 18.0162 19.7664 17.6684 19.7346C17.5605 19.7247 17.3857 19.7025 17.3086 19.7982C17.2249 19.9021 17.2363 20.1698 17.3668 20.233C17.7604 20.4235 18.1768 20.1124 18.2473 20.7482C18.4139 22.2495 18.2552 23.8545 18.2552 25.3655V26.653C18.2551 26.8317 18.277 27.0384 18.1131 27.159C17.8954 27.3191 17.5943 27.1469 17.3668 27.257C17.2363 27.3202 17.2249 27.5879 17.3086 27.6918C17.4206 27.8308 17.7013 27.7325 17.849 27.7226C18.3709 27.6874 18.9055 27.7186 19.4287 27.7186H22.6332C22.9875 27.7186 23.5655 27.8705 23.8909 27.73C24.2232 27.5866 24.3507 26.6197 24.4449 26.2979C24.4824 26.1696 24.5762 25.9937 24.5384 25.8585C24.4425 25.5157 24.0945 25.746 23.9549 25.8985C23.1244 26.8058 22.5358 27.2746 21.2791 27.2746C20.9932 27.2746 20.6388 27.3178 20.3771 27.1785C20.0285 26.9928 20.0681 26.5845 20.0599 26.2535C20.0396 25.44 19.9703 24.6266 19.9703 23.8116ZM24.5288 19.727V20.2598C24.8083 20.2598 25.2517 20.1721 25.4274 20.4422C25.7205 20.8926 25.5669 21.7469 25.5669 22.2577C25.5669 23.7452 25.649 25.2605 25.5175 26.7418C25.4577 27.4166 24.9864 27.0109 24.6463 27.2758C24.5312 27.3655 24.5402 27.6712 24.6786 27.736C24.8161 27.8004 25.0159 27.7266 25.1607 27.7203C25.5204 27.7048 25.8838 27.7186 26.2439 27.7186C27.3701 27.7186 28.5084 27.8599 29.6289 27.6777C30.1017 27.6009 30.6323 27.4894 30.9788 27.1395C32.2939 25.811 31.2184 23.6084 29.4484 23.4564C29.8927 23.2234 30.3672 23.0651 30.6883 22.6572C31.3889 21.7671 31.0841 20.3618 29.99 19.9519C29.1058 19.6207 28.0681 19.73 27.1466 19.7697C26.2722 19.8073 25.3996 19.7271 24.5288 19.727ZM31.4343 19.727C31.4343 19.8604 31.3859 20.1201 31.5066 20.2142C31.736 20.3928 32.1023 20.1168 32.2775 20.44C32.5225 20.8921 32.337 21.839 32.337 22.3465C32.337 23.3133 32.2717 24.3177 32.4012 25.2767C32.498 25.9928 32.7177 26.7151 33.2866 27.2169C34.5302 28.3136 37.1061 28.1203 38.092 26.7862C38.5077 26.2238 38.5987 25.5897 38.6634 24.9215C38.7982 23.5294 38.5595 22.0891 38.7545 20.7038C38.785 20.4876 38.9281 20.3102 39.1522 20.2699C39.3093 20.2417 39.5746 20.3194 39.6343 20.12C39.6732 19.9901 39.6611 19.7843 39.5066 19.7413C39.2793 19.6781 38.941 19.7714 38.7009 19.7714C38.1126 19.7714 37.5261 19.7274 36.9406 19.727C36.9406 19.857 36.8995 20.0799 36.987 20.1886C37.1989 20.4518 37.6066 20.1794 37.7619 20.6594C38.0842 21.6545 37.9336 22.9131 37.9336 23.9448C37.9336 24.5493 37.999 25.1842 37.7946 25.7651C37.3136 27.1322 35.1508 27.7543 34.3805 26.2535C34.0972 25.7014 34.1426 25.0327 34.1423 24.4332C34.142 23.6808 34.0972 22.9244 34.0972 22.1689C34.0972 21.7081 33.992 21.1011 34.1335 20.6594C34.319 20.0804 34.8841 20.4991 35.134 20.1886C35.2215 20.0799 35.1804 19.857 35.1804 19.727H31.4343Z" fill="white"/>
<path d="M27.2821 23.2792C27.7312 23.2792 28.238 23.3012 28.6361 23.0575C29.3337 22.6305 29.5324 21.4447 29.0586 20.793C28.8208 20.4658 27.8034 19.8629 27.3996 20.2488C27.2287 20.412 27.2821 20.8464 27.2821 21.0594V23.2792ZM42.402 21.015L41.2285 24.1672H43.3949L42.4922 21.015H42.402ZM59.2821 21.015C58.7861 21.9308 58.3464 23.1562 58.1086 24.1672H60.275L59.6301 21.9473L59.2821 21.015ZM27.2821 23.6788V25.4547C27.2821 25.8129 27.2735 26.1652 27.3274 26.5203C27.4636 27.4178 28.3985 27.597 29.0872 27.0738C30.0688 26.3281 29.7997 24.3097 28.6361 23.8873C28.2077 23.7318 27.7362 23.688 27.2821 23.6788Z" fill="#133B63"/>
<path d="M31.5698 29.2725V29.5389C32.0251 29.5535 31.976 29.8922 31.976 30.2493V31.9808C31.976 32.2132 32.0404 32.5578 31.9488 32.7751C31.8758 32.9479 31.6878 32.9537 31.5247 32.9575C31.5447 33.2108 31.6913 33.2383 31.9309 33.2164C32.5997 33.1551 33.25 33.2228 33.9168 33.2239C34.1036 33.2242 34.4965 33.2967 34.6512 33.1783C34.8302 33.0414 34.884 32.5037 34.9246 32.2917C34.9408 32.2067 34.9668 32.008 34.8175 32.0268C34.5838 32.0562 34.3464 32.6574 34.1422 32.8051C33.8624 33.0076 33.2208 32.9566 32.8787 32.9575V30.6933C32.8787 30.4108 32.7975 29.9832 32.9059 29.7191C32.9854 29.5256 33.1977 29.5395 33.3752 29.5389V29.2725H31.5698ZM35.1805 29.2725V29.5389C35.3599 29.5395 35.5615 29.5264 35.6435 29.7191C35.7381 29.9414 35.677 30.2785 35.677 30.5157V32.0696C35.677 32.2829 35.7287 32.577 35.6435 32.7773C35.5615 32.97 35.3599 32.9569 35.1805 32.9575L35.2851 33.1972L36.3991 33.1922L36.8813 33.1972L36.9859 32.9575C36.4265 32.9396 36.5955 32.3312 36.5779 31.9364C36.5707 31.7748 36.4724 31.5187 36.6069 31.386C36.8256 31.1703 37.7681 31.3028 38.069 31.3157C38.4889 31.3337 38.3477 31.6912 38.3406 31.9808C38.3298 32.4131 38.4798 32.9506 37.8886 32.9575V33.2239H39.6939V32.9575C39.5096 32.9531 39.3224 32.9368 39.2622 32.7336C39.1729 32.4327 39.2426 32.0266 39.2426 31.7144C39.2426 31.101 39.1517 30.4109 39.2493 29.8055C39.2848 29.585 39.4505 29.5453 39.6488 29.5389V29.2725H37.9337V29.5389C38.5266 29.5579 38.3659 30.5651 38.385 31.004C37.9637 31.0564 37.5458 31.0485 37.1213 31.0484C36.9684 31.0484 36.7274 31.0872 36.6069 30.9711C36.4704 30.8396 36.5645 30.5872 36.5756 30.4269C36.6042 30.0166 36.4722 29.5522 37.031 29.5389V29.2725H35.1805ZM40.0098 29.5389C40.5659 29.5454 40.4612 30.0064 40.4612 30.4269C40.4612 31.1759 40.2942 32.1958 40.801 32.8237C41.4304 33.6034 43.0123 33.3873 43.4254 32.5136C43.7979 31.7255 43.5285 30.6917 43.6255 29.8499C43.6644 29.5123 44.0456 29.605 44.0719 29.2725H42.7179V29.5389C43.245 29.5781 43.1367 30.1372 43.1821 30.5157C43.2767 31.3042 43.3801 32.9089 42.1763 32.8668C41.1004 32.8291 41.3639 31.3052 41.3639 30.6045C41.3639 30.3557 41.2976 29.9968 41.3911 29.7629C41.4703 29.5649 41.6724 29.5434 41.8603 29.5389V29.2725C41.4675 29.2725 40.0473 29.0667 40.0098 29.5389ZM44.3878 29.5389C44.5653 29.5395 44.7776 29.5256 44.8571 29.7191C44.9358 29.9108 44.8771 30.1793 44.8861 30.3825C44.9095 30.9093 44.9095 31.4095 44.8861 31.9364C44.8749 32.1868 44.956 32.5407 44.8571 32.7751C44.7842 32.9479 44.5961 32.9537 44.433 32.9575L44.5376 33.1972L45.0197 33.1922L46.1789 33.1972L46.2835 32.9575C46.1078 32.956 45.9022 32.9619 45.8205 32.7751C45.7199 32.5451 45.787 32.183 45.787 31.9364C45.787 31.2828 45.6242 30.3894 45.8066 29.7618C45.8675 29.552 46.049 29.5411 46.2383 29.5389C46.2309 29.4456 46.2329 29.3465 46.1337 29.2993C45.8713 29.1743 44.7549 29.1743 44.4925 29.2993C44.3932 29.3465 44.3952 29.4456 44.3878 29.5389ZM46.6897 32.9575C46.7219 33.365 47.1654 33.1872 47.457 33.1802C48.2716 33.1605 49.08 33.2239 49.8942 33.2239C49.9199 32.9151 50.3175 32.1303 49.9393 31.9808C49.748 32.2886 49.5625 32.6909 49.2172 32.8608C48.9324 33.001 48.3632 32.9566 48.0437 32.9575C48.0437 31.9428 47.9811 30.9066 48.0457 29.8941C48.0643 29.6017 48.5966 29.5112 48.5515 29.3728C48.5117 29.2523 48.3226 29.2733 48.2242 29.2726C47.8632 29.2701 47.502 29.2718 47.141 29.2725C47.0359 29.2728 46.8117 29.2416 46.7688 29.3728C46.7195 29.5234 47.1183 29.5874 47.1384 29.8055C47.2083 30.5666 47.1504 31.3103 47.1412 32.0696C47.1359 32.5098 47.2644 32.9524 46.6897 32.9575ZM50.4358 29.2725V29.5389C50.8912 29.5535 50.842 29.8922 50.842 30.2493V31.9808C50.842 32.2132 50.9065 32.5578 50.8149 32.7751C50.7418 32.9479 50.5536 32.9537 50.3907 32.9575C50.4105 33.2108 50.5572 33.2383 50.7969 33.2164C51.4658 33.1551 52.1161 33.2207 52.7828 33.2239C52.9719 33.2248 53.3659 33.2963 53.5234 33.1783C53.6963 33.0486 53.7513 32.4967 53.7906 32.2917C53.8069 32.2067 53.833 32.008 53.6836 32.0268C53.4498 32.0562 53.2124 32.6574 53.0084 32.8051C52.7286 33.0076 52.0868 32.9566 51.7447 32.9575C51.7447 31.9518 51.7257 30.9441 51.7447 29.9385C51.7519 29.5708 51.9207 29.6416 52.1816 29.5122C52.2457 29.4803 52.2831 29.4071 52.2371 29.3429C52.1568 29.2301 51.909 29.2725 51.7898 29.2725H50.4358ZM54.0917 29.2725V29.5389C54.2708 29.5395 54.4726 29.5264 54.5547 29.7191C54.654 29.9523 54.5881 30.311 54.5881 30.5601C54.5881 31.204 54.7443 32.0712 54.5687 32.6909C54.5024 32.9252 54.306 32.955 54.0917 32.9575L54.1964 33.1972L55.3554 33.1922L55.8374 33.1972L55.9421 32.9575C55.7752 32.9556 55.5915 32.9559 55.5179 32.7773C55.4231 32.5461 55.4908 32.1831 55.4908 31.9364C55.4908 31.2729 55.3225 30.3585 55.5052 29.7214C55.5562 29.5427 55.7404 29.5427 55.897 29.5389V29.2725H54.0917ZM56.3935 29.2725V29.5389C56.6115 29.5415 56.7947 29.5717 56.8642 29.8055C57.0475 30.4221 56.89 31.2941 56.89 31.9364C56.89 32.1806 56.959 32.547 56.8629 32.7751C56.7834 32.9626 56.5673 32.956 56.3935 32.9575C56.4278 33.392 57.1522 33.1795 57.4767 33.1795C58.0057 33.1795 58.5292 33.2239 59.0564 33.2239C59.2252 33.2239 59.5204 33.2786 59.6652 33.1783C59.8313 33.0636 59.955 32.5326 59.9446 32.3408C59.9333 32.1389 59.7496 32.2131 59.6431 32.2988C59.2017 32.6541 58.6366 33.2612 57.9759 32.9052C57.5945 32.6997 57.7475 31.6815 57.7475 31.3148C58.2282 31.3148 58.5252 31.3578 58.6953 31.8476C59.0781 31.769 58.921 31.2219 58.921 30.9152C58.921 30.8059 58.9616 30.5491 58.819 30.5047C58.647 30.4513 58.5279 30.8436 58.4159 30.9307C58.2268 31.0781 57.9736 31.0484 57.7475 31.0484V29.5389C58.1429 29.5389 58.5297 29.4975 58.8759 29.7213C59.06 29.8403 59.3963 30.3313 59.6287 30.291C59.8476 30.2531 59.5912 29.3418 59.4071 29.2867C59.1363 29.2055 58.7522 29.2725 58.4697 29.2725H56.3935ZM60.275 32.9575L60.3797 33.1972L60.9069 33.1835L61.945 33.2239V32.9575C61.3203 32.9375 61.5388 31.9328 61.5388 31.4924C62.4225 31.5892 62.2708 32.9259 62.9849 33.1971C63.2114 33.2831 63.726 33.2306 63.9751 33.2196C64.0568 33.2159 64.1728 33.1929 64.1728 33.0901C64.1728 32.9308 63.7846 32.841 63.6808 32.7307C63.3044 32.3303 63.0896 31.5964 62.5768 31.3592C62.7894 31.2536 63.0246 31.203 63.2047 31.039C63.7025 30.585 63.5752 29.84 63.0282 29.4932C62.4812 29.1462 61.7062 29.2725 61.0874 29.2725C60.8893 29.2725 60.5607 29.2111 60.3797 29.2993C60.3143 29.3312 60.2795 29.4043 60.3242 29.4688C60.5038 29.7288 60.6505 29.6373 60.6889 30.0273C60.7598 30.7425 60.6902 31.4449 60.6812 32.1584C60.6767 32.5291 60.7674 32.9418 60.275 32.9575Z" fill="#EF4139"/>
<path d="M61.5388 31.2707C62.2668 31.2687 63.0309 30.4485 62.4162 29.7758C62.2533 29.5975 61.7144 29.3623 61.5722 29.6784C61.4752 29.8948 61.5388 30.2389 61.5388 30.4716V31.2707Z" fill="#133B63"/>
</svg>
