<svg width="70" height="50" viewBox="0 0 70 50" fill="none" xmlns="http://www.w3.org/2000/svg">
<rect width="70" height="50" rx="6.63158" fill="white"/>
<mask id="mask0_7942_21705" style="mask-type:alpha" maskUnits="userSpaceOnUse" x="0" y="0" width="70" height="50">
<rect width="70" height="50" rx="6.63158" fill="white"/>
</mask>
<g mask="url(#mask0_7942_21705)">
</g>
<path d="M20.3766 21.6164C20.4583 21.5401 20.6007 21.5949 20.633 21.694C20.6491 21.7534 20.6185 21.8087 20.5838 21.8546C20.7205 21.87 20.8581 21.9022 20.9775 21.9729C21.011 21.991 21.0426 22.0177 21.0829 22.0196C21.206 22.0334 21.3308 22.0682 21.4318 22.1418C21.5346 22.2161 21.5859 22.3594 21.5355 22.4787C21.4789 22.6151 21.338 22.6987 21.1976 22.7269C21.1168 22.7346 21.1407 22.8341 21.1293 22.8906C20.8194 22.8232 20.4998 22.8153 20.1839 22.8351C20.062 22.8439 19.9426 22.8762 19.8203 22.8785C19.8174 22.8351 19.8149 22.7922 19.8132 22.7492C19.7435 22.7183 19.6641 22.7137 19.5992 22.6718C19.4942 22.6142 19.3958 22.5102 19.4002 22.3838C19.3933 22.2814 19.4544 22.1856 19.5374 22.1297C19.6356 22.0619 19.7556 22.0338 19.8727 22.0192C19.9075 22.0181 19.9349 21.995 19.9636 21.9783C20.0857 21.8997 20.2321 21.875 20.3733 21.8531C20.3033 21.7929 20.293 21.6694 20.3766 21.6164ZM20.0101 22.2044C19.9602 22.2901 19.9648 22.4128 20.0375 22.4851C20.1215 22.5784 20.2463 22.6215 20.3687 22.6347C20.3754 22.5477 20.324 22.4695 20.3249 22.3827C20.3104 22.2615 20.3441 22.1443 20.3754 22.029C20.2361 22.0288 20.0941 22.0924 20.0101 22.2044ZM20.5649 22.0325C20.6581 22.2223 20.6552 22.4597 20.5461 22.6424C20.7027 22.6278 20.8807 22.5673 20.9584 22.4203C20.9888 22.3402 20.9792 22.2394 20.917 22.1762C20.8294 22.0801 20.6954 22.0229 20.5649 22.0325ZM19.5675 22.3141C19.5529 22.389 19.5499 22.4803 19.6126 22.5356C19.6873 22.6159 19.8025 22.6276 19.906 22.6336C19.907 22.6201 19.9091 22.5928 19.9102 22.579C19.8319 22.5304 19.7588 22.4557 19.7518 22.3596C19.7433 22.2868 19.7822 22.2219 19.8067 22.1564C19.7114 22.1702 19.6004 22.2156 19.5675 22.3141ZM21.1478 22.1562C21.184 22.239 21.2251 22.3314 21.1867 22.4217C21.1482 22.5243 21.0441 22.5725 20.9559 22.6247C21.0831 22.629 21.229 22.6359 21.3287 22.5421C21.3972 22.4899 21.4054 22.395 21.3865 22.3174C21.3522 22.2184 21.2454 22.1685 21.1478 22.1562Z" fill="white"/>
<path d="M21.6961 22.9512C22.0266 23.0071 22.3194 23.2471 22.4423 23.5577C22.485 23.666 22.5227 23.7794 22.5244 23.8971C22.5276 23.8966 22.5338 23.8958 22.537 23.8954C22.5047 23.564 22.8191 23.2259 23.1586 23.2816C22.9408 23.4226 22.8137 23.6628 22.7454 23.9062C22.595 24.4594 22.4913 25.0246 22.4201 25.5932C22.3684 25.9995 22.3162 26.4267 22.461 26.8207C22.5688 26.6181 22.7259 26.4379 22.932 26.3305C22.955 26.3182 22.9816 26.3163 23.0072 26.3115C22.8444 26.5497 22.7318 26.8182 22.6599 27.0966C22.7917 26.9383 22.9349 26.7662 23.1395 26.7037C23.0585 26.8488 22.9672 26.99 22.9096 27.1471C22.8683 27.2599 22.8164 27.3736 22.8086 27.4948C22.9221 27.3012 23.0899 27.1237 23.3058 27.0478C23.1668 27.285 23.0355 27.5342 22.9783 27.8047C23.066 27.9632 23.1731 28.1122 23.2483 28.2778C23.3033 28.3954 23.3509 28.5283 23.3184 28.6591C23.3132 28.785 23.2598 28.9035 23.1913 29.0076C23.0694 29.1845 22.8451 29.2739 22.6335 29.2525C22.2693 29.2205 21.9298 28.9671 21.8033 28.6246C21.7292 28.6113 21.6739 28.6766 21.6326 28.7285C21.4292 29.0028 21.3915 29.3628 21.4362 29.6921C21.4669 29.8567 21.5941 30.0342 21.7788 30.0265C21.8402 29.9453 21.8858 29.8544 21.9447 29.7716C22.0048 29.9203 22.001 30.0863 21.9912 30.2438C21.9663 30.4518 21.8785 30.6462 21.7652 30.8207C21.6571 31.0009 21.5227 31.1776 21.4952 31.3916C21.4718 31.514 21.4701 31.6415 21.4223 31.7583C21.3767 31.712 21.3266 31.6448 21.2514 31.6719C21.1605 31.7055 21.1098 31.7981 21.0738 31.8824C21.0053 32.0319 20.9829 32.2034 20.8807 32.3369C20.8568 32.3655 20.8321 32.4022 20.7909 32.4047C20.6815 32.4239 20.5714 32.4372 20.4627 32.4595C20.4482 32.5246 20.4312 32.589 20.4139 32.6537C20.3856 32.6347 20.3571 32.6164 20.329 32.5978C20.2731 32.3905 20.2541 32.1646 20.3192 31.9575C20.3209 31.9462 20.3242 31.9237 20.3259 31.9124C20.2982 31.9521 20.2681 31.9923 20.2568 32.0401C20.2499 32.1047 20.2551 32.1702 20.2551 32.2355L20.2348 32.2326C20.271 32.2687 20.2371 32.3296 20.2404 32.3755C20.1902 32.379 20.1343 32.3698 20.0911 32.4013C20.0314 32.4286 20.0249 32.4994 19.9973 32.5515C19.9761 32.5304 19.9514 32.5102 19.9479 32.4789C19.8921 32.2695 19.9221 32.0486 19.9864 31.8453C19.9912 31.8188 19.9937 31.7925 19.9943 31.7664C19.9839 31.7718 19.9625 31.7831 19.952 31.7887C19.9089 31.9358 19.9131 32.0945 19.853 32.2368C19.788 32.2092 19.779 32.0924 19.6913 32.1312C19.6649 32.1696 19.6433 32.2111 19.619 32.2509C19.5803 32.238 19.5905 32.1934 19.5832 32.1629C19.5767 32.0816 19.5551 31.9902 19.6052 31.9181C19.6722 31.8069 19.7321 31.6899 19.8195 31.5929C19.8387 31.5716 19.854 31.547 19.8655 31.5211C19.795 31.5332 19.7644 31.6083 19.716 31.6532C19.6837 31.6799 19.6653 31.7364 19.6222 31.7424C19.601 31.6932 19.5947 31.6394 19.5864 31.5875C19.5409 31.5681 19.4908 31.5687 19.4427 31.5676C19.427 31.5082 19.4647 31.4467 19.5164 31.4187C19.5759 31.4016 19.6488 31.4118 19.6948 31.3622C19.7483 31.3176 19.7899 31.2389 19.8697 31.2435C20.0092 31.246 20.1087 31.3547 20.2258 31.4143C20.3213 31.4686 20.4451 31.4644 20.5414 31.4141C20.6537 31.358 20.7412 31.2648 20.8185 31.1682C20.9693 30.9832 21.0835 30.7726 21.1978 30.5642C21.2127 30.5371 21.2225 30.5079 21.2313 30.4785C21.1716 30.468 21.1111 30.4668 21.051 30.4639C21.0225 30.5162 20.9942 30.5704 20.949 30.6109C20.8985 30.6597 20.826 30.6714 20.762 30.6937C20.754 30.5928 20.7749 30.4912 20.7569 30.3909C20.7314 30.1754 20.58 30.0054 20.5209 29.8006C20.4323 29.5138 20.4444 29.2091 20.4524 28.9123C20.4503 28.7585 20.4907 28.603 20.4669 28.4509C20.1707 28.1524 19.9135 27.788 19.5141 27.6181C19.3865 27.5619 19.2408 27.5461 19.1048 27.5757C19.0213 27.5934 18.9536 27.6616 18.9356 27.744C18.9048 27.8675 19.0213 27.967 19.1268 28.0037C19.1036 28.0707 19.0548 28.1447 18.9819 28.1677C18.8868 28.2102 18.7781 28.2275 18.6763 28.2014C18.6288 28.1854 18.5854 28.1604 18.5396 28.1412C18.4637 28.2231 18.3898 28.3153 18.3705 28.4284C18.3536 28.561 18.3741 28.6943 18.3747 28.8272C18.3764 28.9338 18.3282 29.037 18.2539 29.1121C18.2484 29.1113 18.2378 29.1094 18.2323 29.1085C18.2246 29.0654 18.2193 29.022 18.2116 28.9792C18.1263 28.9673 18.0421 28.945 17.9711 28.8947C17.8915 29.0184 17.8277 29.1863 17.6704 29.2264C17.6161 29.2189 17.5749 29.1807 17.5254 29.1636C17.4639 29.1878 17.426 29.2527 17.3723 29.2913C17.3338 29.1517 17.3748 29.0095 17.3744 28.8681C17.3707 28.8441 17.3893 28.8272 17.4029 28.8109C17.4689 28.7383 17.5414 28.6714 17.605 28.5967C17.6023 28.5721 17.5893 28.5285 17.556 28.5456C17.4783 28.6136 17.4092 28.6916 17.3294 28.7575C17.3047 28.79 17.2733 28.7538 17.2494 28.7421C17.2442 28.6964 17.2303 28.6246 17.1704 28.6276C17.1394 28.6465 17.1124 28.6724 17.0779 28.6858C17.0598 28.5356 17.1457 28.3988 17.2261 28.2795C17.2527 28.2323 17.3099 28.2309 17.357 28.2217C17.4255 28.2379 17.4944 28.2544 17.5646 28.264C17.564 28.2505 17.5629 28.2233 17.5625 28.2098C17.4655 28.1758 17.3623 28.1718 17.2638 28.147C17.2676 28.0823 17.2733 28.0177 17.2695 27.9532C17.2287 27.9307 17.1801 27.9278 17.1367 27.9121C17.1505 27.8742 17.166 27.8373 17.184 27.8014C17.3028 27.7741 17.4203 27.7171 17.5443 27.729C17.6371 27.7605 17.6861 27.8556 17.7449 27.9278C17.8017 27.927 17.8497 27.8959 17.8905 27.8594C18.0595 27.713 18.1913 27.5305 18.3203 27.3498C18.3521 27.2971 18.3997 27.2493 18.4036 27.1848C18.2501 27.1012 18.1112 26.9854 18.0162 26.838C17.9783 26.776 17.9374 26.712 17.9313 26.6377C18.1466 26.5798 18.3113 26.4131 18.4438 26.2423C18.6447 25.987 18.7993 25.6975 19.0196 25.4572C19.166 25.2943 19.3518 25.1583 19.5665 25.1024C19.7302 25.0542 19.9078 25.0505 20.0616 24.9708C20.213 24.8882 20.2832 24.7063 20.2823 24.5414C20.1988 24.5389 20.1054 24.5582 20.0538 24.6298C19.9987 24.6955 19.9994 24.7841 19.9874 24.8642C19.7924 24.684 19.7491 24.3757 19.8417 24.1348C19.8641 24.188 19.8934 24.2427 19.9527 24.2617C20.0186 24.2848 20.1296 24.2811 20.1447 24.1947C20.1797 24.0293 20.1738 23.8345 20.0536 23.7027C20.0243 23.6697 19.9801 23.618 19.9317 23.6497C19.8327 23.692 19.8151 23.8074 19.7508 23.8804C19.6396 23.7402 19.5922 23.5596 19.5941 23.3833C19.5964 23.3569 19.6029 23.3229 19.6316 23.3131C19.6961 23.2857 19.7652 23.2707 19.8293 23.2423C19.7476 23.2052 19.6496 23.2342 19.5625 23.2131C19.5759 23.1741 19.5773 23.1157 19.6289 23.1086C19.9734 23.0225 20.3303 22.9466 20.6874 22.9875C20.949 23.016 21.206 23.1414 21.3641 23.3552C21.5976 23.6626 21.6544 24.0608 21.6747 24.4354C21.6117 24.4379 21.549 24.4379 21.4864 24.4358C21.5067 24.6119 21.5555 24.7885 21.521 24.9668C21.5105 25.1838 21.4787 25.4001 21.4923 25.6178C21.4873 25.6464 21.5134 25.7029 21.4646 25.7008C21.4558 25.6929 21.4382 25.6773 21.4292 25.6695C21.4397 25.6675 21.4607 25.6633 21.4711 25.6614C21.4803 25.5369 21.4722 25.4109 21.4726 25.286C21.4655 25.4065 21.4785 25.5281 21.4671 25.6481C21.411 25.6766 21.3821 25.6084 21.3484 25.5796C21.3147 25.613 21.3262 25.6629 21.317 25.705C21.2627 26.0498 21.0925 26.3827 20.8216 26.6081C20.811 26.6321 20.8359 26.6463 20.8497 26.6622C21.0018 26.8046 21.1501 26.9508 21.2977 27.0979C21.5516 27.3538 21.8282 27.6066 21.9748 27.943C22.0967 28.1795 22.2278 28.4146 22.4023 28.6173C22.4798 28.6987 22.5724 28.7994 22.6966 28.7848C22.795 28.7955 22.8566 28.6999 22.8907 28.6219C22.9284 28.4841 22.8509 28.3552 22.791 28.2367C22.6113 27.9128 22.3826 27.6185 22.2027 27.2946C22.0069 26.9606 21.8515 26.5912 21.8358 26.2006C21.8444 25.9194 21.8992 25.6426 21.9478 25.3663C22.0014 25.0749 22.054 24.7831 22.0844 24.4884C22.084 24.2936 22.1212 24.0992 22.0917 23.9048C22.0835 23.5546 21.9606 23.1919 21.6961 22.9512ZM20.1944 23.1812C20.1952 23.2551 20.1952 23.3291 20.1935 23.4034C20.2348 23.3984 20.275 23.3871 20.3131 23.3702C20.4279 23.3206 20.5498 23.2876 20.6623 23.2325C20.669 23.1983 20.6262 23.2025 20.6061 23.1931C20.4706 23.1664 20.3313 23.181 20.1944 23.1812Z" fill="white"/>
<path d="M19.1055 23.9793C19.1326 23.9077 19.1707 23.8282 19.2477 23.8003C19.2182 23.8835 19.1837 23.9732 19.2132 24.0618C19.2528 24.1171 19.3273 24.1104 19.387 24.1042C19.533 24.0777 19.6679 24.0145 19.8055 23.9615C19.8861 23.9294 19.9812 23.9361 20.0593 23.9724C19.9793 23.9861 19.8995 24.007 19.8315 24.0527C19.6926 24.1411 19.5877 24.2811 19.4289 24.338C19.3357 24.3722 19.2159 24.3751 19.142 24.2994C19.0639 24.2129 19.067 24.0827 19.1055 23.9793Z" fill="white"/>
<path d="M17.9806 24.1592C18.0639 24.1869 18.1213 24.2662 18.1546 24.3444C18.2135 24.5863 18.1079 24.8318 18.1492 25.075C18.2147 25.367 18.5486 25.4959 18.6202 25.7848C18.6143 25.8226 18.585 25.8518 18.5664 25.8841C18.4644 26.033 18.3793 26.1997 18.2384 26.3169C18.0779 26.1231 17.9313 25.9183 17.7684 25.7268C17.7608 25.7262 17.7456 25.7245 17.738 25.7237C17.6796 25.7865 17.6469 25.868 17.5912 25.9329C17.555 25.959 17.5055 25.9513 17.4634 25.9523C17.379 25.9446 17.2749 25.9471 17.2209 25.8695C17.3283 25.7809 17.4215 25.6559 17.4163 25.5103C17.4335 25.2847 17.307 25.0857 17.1868 24.9061C17.1438 24.8343 17.0846 24.7751 17.0291 24.7134C17.143 24.6771 17.2733 24.6251 17.3903 24.6773C17.4557 24.7478 17.515 24.8241 17.5776 24.8973C17.5883 24.8969 17.6094 24.8963 17.6199 24.8959C17.6184 24.8635 17.6167 24.8314 17.6149 24.7997C17.561 24.738 17.5294 24.6614 17.4842 24.5941C17.4084 24.4837 17.4536 24.3442 17.4291 24.2209C17.5619 24.253 17.6861 24.3252 17.782 24.422C17.8691 24.5113 17.8277 24.6593 17.9179 24.7451C17.9221 24.6529 17.9114 24.5611 17.8999 24.47C17.901 24.3602 17.9868 24.2712 17.9806 24.1592Z" fill="white"/>
<path d="M19.6728 28.0128C19.8334 27.978 19.9813 28.08 20.1002 28.1751C20.0879 28.2454 20.0839 28.3167 20.0898 28.3881C20.0952 28.3242 20.0931 28.26 20.1 28.1966C20.1197 28.2669 20.0864 28.3439 20.1178 28.4133C20.1746 28.5372 20.3157 28.5939 20.3809 28.7105C20.3836 28.8234 20.3708 28.9362 20.3583 29.0484C20.2745 28.9961 20.167 28.9325 20.0684 28.985C19.9823 29.0184 19.9593 29.1175 19.9323 29.1957C19.8992 29.3821 19.9725 29.5661 20.0531 29.7309C20.1708 29.9524 20.3239 30.1566 20.5072 30.3284C20.4094 30.4576 20.2697 30.5698 20.1013 30.5787C19.9199 30.585 19.7285 30.5848 19.5638 30.6711C19.469 30.7352 19.4099 30.8438 19.2983 30.8853C19.2851 30.8388 19.2803 30.7911 19.2723 30.7439C19.257 30.6983 19.2227 30.6634 19.1933 30.6271C19.0878 30.6309 19 30.6993 18.9452 30.785C18.8859 30.8743 18.7818 30.9702 18.6658 30.9329C18.6186 30.9145 18.5682 30.9127 18.5187 30.9193C18.5009 30.9734 18.4844 31.0276 18.4672 31.082C18.3654 31.0061 18.3642 30.8634 18.3918 30.7512C18.4067 30.6382 18.4528 30.532 18.4643 30.4188C18.4517 30.4188 18.4262 30.4188 18.4136 30.4188C18.3799 30.5193 18.3736 30.6326 18.3064 30.7187C18.2624 30.6757 18.2196 30.6315 18.1798 30.5848C18.13 30.6121 18.0862 30.6517 18.0295 30.6647C18.0175 30.5239 18.0965 30.3994 18.1761 30.2905C18.2341 30.2102 18.2904 30.1222 18.2936 30.0202C18.2029 30.1017 18.1325 30.2021 18.0464 30.2882C18.0355 30.2104 18.0089 30.1364 17.9696 30.0686C17.9229 30.0663 17.8766 30.0644 17.8301 30.0623C17.856 29.9833 17.9034 29.9067 17.98 29.8679C18.0954 29.8041 18.2347 29.8172 18.3585 29.8458C18.3583 29.8218 18.3583 29.7982 18.3585 29.7749C18.2754 29.754 18.1937 29.7292 18.112 29.705C18.1252 29.6506 18.1593 29.5984 18.1484 29.5407C18.1321 29.4996 18.1065 29.4635 18.085 29.4255C18.2161 29.4059 18.3505 29.4458 18.4509 29.5315C18.591 29.6539 18.6733 29.8391 18.845 29.9255C18.9405 29.9783 19.0526 29.9728 19.1582 29.9735C19.2914 29.9724 19.4258 29.9762 19.558 29.9568C19.5902 29.9244 19.5377 29.8886 19.5205 29.8627C19.3203 29.6512 19.2055 29.3657 19.1906 29.0766C19.1879 29.0359 19.1824 28.9959 19.1749 28.9562C19.1029 28.9418 19.031 28.9135 18.9818 28.8574C18.9129 28.7777 18.8815 28.6721 18.8706 28.5695C19.0549 28.5783 19.2143 28.46 19.3249 28.324C19.4269 28.2079 19.5192 28.065 19.6728 28.0128Z" fill="white"/>
<path d="M15.5551 9.38446C15.7623 9.354 15.9807 9.36881 16.1715 9.46038C16.4771 9.59533 16.733 9.86752 16.795 10.201C16.838 10.4736 16.7563 10.7623 16.5802 10.9748C16.5311 11.0355 16.4694 11.0837 16.4147 11.1388C17.3691 11.2308 18.3397 11.4529 19.1511 11.9833C19.2334 12.0319 19.3023 12.1016 19.3877 12.1445C20.1666 12.2315 20.9621 12.3879 21.6405 12.7984C21.9486 12.9895 22.2257 13.2416 22.4087 13.5568C22.5824 13.8524 22.6697 14.1971 22.6536 14.5396C22.6661 14.8028 22.5935 15.0636 22.4758 15.2974C22.3105 15.6344 22.0487 15.9175 21.7492 16.1413C21.4644 16.3519 21.1431 16.5123 20.8061 16.6216C20.7196 16.6527 20.6285 16.6698 20.5445 16.708C20.8672 16.7411 21.195 16.7824 21.4981 16.9038C21.522 16.9679 21.5284 17.0373 21.5416 17.1043C21.6162 17.5062 21.6908 17.9083 21.7706 18.3092C20.1604 18.1038 18.5414 17.9586 16.918 17.9279C16.5416 17.9037 16.1636 17.9148 15.7864 17.9123C15.5065 17.9144 15.2261 17.9056 14.9469 17.9271C14.3462 17.9296 13.7474 17.9717 13.1478 17.9982C12.6937 18.037 12.2388 18.0658 11.7854 18.1106C11.1141 18.1761 10.4433 18.2506 9.77578 18.3482C9.74353 18.3518 9.71127 18.3509 9.67923 18.3507C9.78709 17.8745 9.86773 17.3927 9.96072 16.9136C10.0721 16.8592 10.1997 16.8415 10.3197 16.811C10.5398 16.7603 10.765 16.7395 10.9874 16.7042C10.5206 16.5953 10.07 16.3957 9.68991 16.1016C9.30558 15.8032 8.98869 15.395 8.87141 14.9176C8.81988 14.734 8.83831 14.5419 8.83643 14.3538C8.85842 13.9189 9.05593 13.4997 9.35941 13.1887C9.75358 12.7786 10.2891 12.5369 10.8291 12.3806C11.2442 12.2607 11.6723 12.1911 12.1014 12.145C12.1427 12.1264 12.176 12.0949 12.2126 12.0695C12.7557 11.6777 13.3962 11.4433 14.0457 11.2954C14.3848 11.2233 14.7283 11.1715 15.0734 11.1398C14.9061 10.9984 14.7666 10.8161 14.7161 10.6C14.6483 10.3656 14.6793 10.104 14.8095 9.89651C14.9735 9.63412 15.2506 9.44432 15.5551 9.38446ZM13.4643 12.6007C13.1243 12.8474 12.8284 13.172 12.6761 13.5672C12.5957 13.7558 12.5637 13.9604 12.5545 14.1638C12.5551 14.631 12.7608 15.084 13.0823 15.4194C13.396 15.7608 13.8088 15.9967 14.2409 16.1573C14.568 16.272 14.9103 16.345 15.2563 16.3688C14.9517 15.9075 14.8451 15.351 14.7808 14.8116C14.7431 14.4239 14.7366 14.0328 14.7649 13.644C14.8114 13.0752 14.9124 12.4935 15.192 11.9877C14.5783 12.0459 13.9697 12.2436 13.4643 12.6007ZM16.2966 11.9879C16.5299 12.4057 16.634 12.88 16.6941 13.3503C16.7039 13.4832 16.7293 13.6148 16.7263 13.7487C16.7245 14.068 16.7343 14.388 16.7186 14.7071C16.6863 14.968 16.6576 15.2304 16.5921 15.4855C16.5165 15.7946 16.4118 16.1021 16.2312 16.3672C16.5429 16.3557 16.8495 16.2835 17.1461 16.1909C17.5765 16.0499 17.9851 15.828 18.3135 15.5145C18.5724 15.2671 18.7766 14.957 18.8715 14.6105C18.9452 14.3438 18.9529 14.0593 18.8836 13.7906C18.7831 13.3712 18.5177 13.006 18.1903 12.7306C17.66 12.2891 16.9785 12.0536 16.2966 11.9879ZM10.8266 13.1269C10.487 13.2859 10.1804 13.5414 10.0189 13.8843C9.87275 14.1965 9.8338 14.5563 9.90542 14.8927C9.97517 15.2308 10.175 15.5351 10.4441 15.75C10.8006 16.0364 11.248 16.1867 11.696 16.256C12.0853 16.3077 12.4824 16.3198 12.8713 16.2581C12.6229 16.1523 12.3787 16.0339 12.1548 15.8818C11.7619 15.6213 11.4216 15.2571 11.2647 14.8072C11.0383 14.1671 11.1975 13.4273 11.6134 12.899C11.3407 12.9282 11.0754 13.0128 10.8266 13.1269ZM19.8755 12.8983C20.1616 13.2704 20.3311 13.736 20.3256 14.2063C20.3317 14.582 20.2039 14.9549 19.9872 15.2607C19.8757 15.425 19.7298 15.561 19.5867 15.6974C19.2966 15.9304 18.9676 16.1106 18.6252 16.2549C18.7368 16.2912 18.8557 16.2735 18.9703 16.2923C19.2283 16.314 19.487 16.291 19.7434 16.2625C20.1248 16.2018 20.5072 16.1016 20.8373 15.8956C21.159 15.7006 21.4279 15.4033 21.5431 15.0419C21.6332 14.7549 21.6432 14.4424 21.5638 14.1517C21.484 13.8207 21.2752 13.528 21 13.3288C20.6714 13.0911 20.277 12.949 19.8755 12.8983Z" fill="#DAB42D"/>
<path d="M15.8243 18.9887C15.9429 18.9874 16.0788 18.9843 16.2049 18.9857C16.6238 18.9949 17.0437 18.9807 17.4619 19.0089C18.3707 19.0237 19.2774 19.0836 20.183 19.1536C21.4707 19.2592 22.7556 19.4091 24.0317 19.6142C24.458 21.8668 24.837 24.1278 25.2266 26.387C25.4434 27.6727 25.6623 28.958 25.8771 30.244C25.9224 30.5075 25.9904 30.7703 25.9844 31.0397C25.9825 31.1785 25.9884 31.3178 25.9775 31.4565C25.9251 31.8436 25.7971 32.2253 25.5758 32.55C25.3378 32.8975 25.0264 33.1881 24.6915 33.4415C24.0868 33.8874 23.4654 34.3098 22.8486 34.7384C20.8348 36.1263 18.8108 37.4993 16.7857 38.8709C16.5098 39.057 16.2348 39.2443 15.9571 39.4272C15.8953 39.4689 15.835 39.4084 15.7849 39.3776C14.3471 38.4361 12.9158 37.4847 11.4855 36.5324C10.1428 35.6326 8.79709 34.7372 7.46901 33.8165C7.16909 33.6038 6.86079 33.3996 6.59061 33.1489C6.35038 32.9324 6.13319 32.6869 5.96961 32.4074C5.74844 32.0188 5.63136 31.5689 5.65168 31.1219C5.6366 30.7961 5.71786 30.4787 5.7742 30.1606C6.4195 26.6684 7.06353 23.1764 7.71846 19.6859C7.79365 19.6621 7.8724 19.6569 7.9499 19.6444C8.38616 19.5662 8.82495 19.5034 9.26352 19.4398L9.27211 19.4377C9.2698 19.4552 9.2652 19.4901 9.26268 19.5074C8.92213 21.3397 8.60273 23.176 8.28438 25.0123C7.94508 26.9723 7.61332 28.9335 7.27717 30.8942C7.22564 31.2343 7.28575 31.606 7.50441 31.8807C7.76014 32.2149 8.11473 32.4522 8.45696 32.6896C8.85217 32.963 9.25305 33.2288 9.65308 33.4951C11.0166 34.3993 12.3874 35.2924 13.7563 36.1884C14.4437 36.6346 15.1264 37.0878 15.8157 37.5313C15.8218 37.4948 15.8287 37.4585 15.831 37.422C15.83 31.6027 15.8308 25.7832 15.8306 19.9637C15.8266 19.6419 15.8386 19.3195 15.8241 18.998L15.8243 18.9887ZM20.3768 21.6163C20.2932 21.6693 20.3035 21.7927 20.3734 21.853C20.2322 21.8749 20.0858 21.8995 19.9637 21.9782C19.935 21.9949 19.9076 22.018 19.8728 22.0191C19.7558 22.0337 19.6357 22.0618 19.5375 22.1296C19.4546 22.1855 19.3934 22.2812 19.4003 22.3836C19.3959 22.51 19.4944 22.6141 19.5993 22.6717C19.6642 22.7136 19.7436 22.7182 19.8134 22.7491C19.815 22.792 19.8175 22.835 19.8205 22.8784C19.9428 22.8761 20.0622 22.8438 20.1841 22.835C20.4999 22.8152 20.8195 22.8231 21.1295 22.8905C21.1408 22.834 21.1169 22.7345 21.1978 22.7267C21.3381 22.6986 21.4791 22.615 21.5356 22.4785C21.5861 22.3592 21.5348 22.2159 21.4319 22.1417C21.331 22.0681 21.2062 22.0332 21.083 22.0195C21.0428 22.0176 21.0112 21.9909 20.9776 21.9727C20.8583 21.902 20.7207 21.8699 20.5839 21.8545C20.6187 21.8086 20.6492 21.7533 20.6331 21.6939C20.6009 21.5948 20.4584 21.54 20.3768 21.6163ZM21.6962 22.9512C21.9608 23.1919 22.0837 23.5546 22.0919 23.9048C22.1214 24.0992 22.0841 24.2936 22.0846 24.4884C22.0542 24.7831 22.0016 25.0749 21.948 25.3663C21.8994 25.6426 21.8445 25.9194 21.8359 26.2006C21.8517 26.5912 22.0071 26.9606 22.2029 27.2946C22.3828 27.6185 22.6115 27.9128 22.7912 28.2367C22.8511 28.3552 22.9286 28.4841 22.8909 28.6219C22.8568 28.6999 22.7952 28.7955 22.6968 28.7848C22.5726 28.7994 22.48 28.6987 22.4025 28.6173C22.228 28.4146 22.0969 28.1795 21.975 27.943C21.8284 27.6066 21.5517 27.3538 21.2979 27.0979C21.1502 26.9508 21.0019 26.8046 20.8499 26.6622C20.8361 26.6463 20.8111 26.6321 20.8218 26.6081C21.0926 26.3827 21.2629 26.0498 21.3172 25.705C21.3264 25.6629 21.3149 25.613 21.3486 25.5796C21.3823 25.6084 21.4112 25.6766 21.4673 25.6481C21.4786 25.5281 21.4656 25.4065 21.4728 25.286C21.4724 25.4109 21.4805 25.5369 21.4713 25.6614C21.4608 25.6633 21.4399 25.6675 21.4294 25.6695C21.4384 25.6773 21.456 25.6929 21.4648 25.7008C21.5136 25.7029 21.4874 25.6464 21.4925 25.6178C21.4788 25.4001 21.5107 25.1838 21.5212 24.9669C21.5557 24.7885 21.5069 24.6119 21.4866 24.4358C21.5492 24.4379 21.6118 24.4379 21.6749 24.4354C21.6546 24.0608 21.5978 23.6626 21.3643 23.3552C21.2062 23.1414 20.9492 23.016 20.6876 22.9875C20.3305 22.9466 19.9736 23.0225 19.629 23.1087C19.5775 23.1157 19.5761 23.1741 19.5627 23.2131C19.6498 23.2342 19.7478 23.2052 19.8295 23.2423C19.7654 23.2707 19.6963 23.2857 19.6318 23.3131C19.6031 23.3229 19.5966 23.3569 19.5943 23.3833C19.5924 23.5596 19.6397 23.7402 19.7509 23.8804C19.8152 23.8074 19.8328 23.692 19.9319 23.6497C19.9803 23.618 20.0245 23.6697 20.0538 23.7027C20.174 23.8345 20.1799 24.0293 20.1449 24.1947C20.1298 24.2811 20.0188 24.2848 19.9528 24.2617C19.8936 24.2427 19.8643 24.188 19.8418 24.1348C19.7493 24.3757 19.7926 24.684 19.9876 24.8642C19.9996 24.7841 19.9989 24.6955 20.054 24.6298C20.1055 24.5583 20.1989 24.5389 20.2825 24.5414C20.2833 24.7063 20.2132 24.8882 20.0618 24.9708C19.908 25.0505 19.7304 25.0542 19.5666 25.1024C19.352 25.1583 19.1662 25.2943 19.0198 25.4572C18.7994 25.6975 18.6449 25.987 18.444 26.2423C18.3114 26.4131 18.1468 26.5798 17.9315 26.6378C17.9376 26.712 17.9784 26.776 18.0163 26.838C18.1114 26.9854 18.2503 27.1012 18.4038 27.1848C18.3998 27.2493 18.3523 27.2971 18.3204 27.3498C18.1914 27.5305 18.0597 27.713 17.8907 27.8594C17.8498 27.8959 17.8019 27.927 17.7451 27.9278C17.6863 27.8556 17.6372 27.7605 17.5445 27.729C17.4205 27.7171 17.303 27.7741 17.1842 27.8014C17.1662 27.8373 17.1507 27.8742 17.1369 27.9122C17.1802 27.9278 17.2288 27.9307 17.2697 27.9532C17.2734 28.0177 17.2678 28.0823 17.264 28.147C17.3625 28.1718 17.4657 28.1758 17.5627 28.2098C17.5631 28.2233 17.5642 28.2505 17.5648 28.264C17.4946 28.2544 17.4257 28.2379 17.3572 28.2217C17.3101 28.2309 17.2529 28.2323 17.2263 28.2795C17.1459 28.3988 17.06 28.5356 17.078 28.6858C17.1126 28.6724 17.1396 28.6465 17.1706 28.6276C17.2305 28.6246 17.2443 28.6964 17.2496 28.7421C17.2734 28.7538 17.3049 28.79 17.3296 28.7575C17.4094 28.6916 17.4785 28.6136 17.5562 28.5456C17.5895 28.5285 17.6025 28.5721 17.6052 28.5967C17.5415 28.6714 17.4691 28.7383 17.4031 28.8109C17.3895 28.8272 17.3708 28.8441 17.3746 28.8681C17.375 29.0095 17.334 29.1517 17.3725 29.2913C17.4261 29.2527 17.464 29.1878 17.5256 29.1636C17.575 29.1807 17.6163 29.2189 17.6705 29.2264C17.8278 29.1863 17.8917 29.0184 17.9713 28.8948C18.0423 28.945 18.1265 28.9673 18.2117 28.9792C18.2195 29.022 18.2247 29.0654 18.2325 29.1085C18.2379 29.1094 18.2486 29.1113 18.2541 29.1121C18.3284 29.037 18.3766 28.9338 18.3749 28.8272C18.3743 28.6943 18.3538 28.561 18.3707 28.4284C18.39 28.3153 18.4639 28.2231 18.5397 28.1412C18.5856 28.1604 18.629 28.1854 18.6765 28.2014C18.7783 28.2275 18.887 28.2102 18.9821 28.1677C19.055 28.1447 19.1038 28.0707 19.127 28.0037C19.0215 27.967 18.905 27.8675 18.9358 27.744C18.9538 27.6617 19.0215 27.5934 19.105 27.5757C19.241 27.5461 19.3867 27.562 19.5143 27.6181C19.9137 27.788 20.1709 28.1524 20.467 28.4509C20.4909 28.603 20.4505 28.7586 20.4526 28.9123C20.4446 29.2091 20.4325 29.5138 20.5211 29.8006C20.5801 30.0054 20.7316 30.1754 20.7571 30.3909C20.7751 30.4912 20.7542 30.5928 20.7621 30.6937C20.8262 30.6714 20.8987 30.6597 20.9492 30.6109C20.9944 30.5705 21.0227 30.5162 21.0512 30.4639C21.1113 30.4668 21.1718 30.468 21.2315 30.4785C21.2227 30.5079 21.2129 30.5371 21.198 30.5642C21.0836 30.7726 20.9695 30.9832 20.8187 31.1682C20.7414 31.2648 20.6538 31.358 20.5416 31.4141C20.4452 31.4644 20.3215 31.4686 20.226 31.4143C20.1089 31.3547 20.0094 31.246 19.8699 31.2435C19.7901 31.2389 19.7484 31.3176 19.695 31.3622C19.6489 31.4118 19.5761 31.4016 19.5166 31.4187C19.4648 31.4467 19.4271 31.5082 19.4429 31.5677C19.491 31.5687 19.5411 31.5681 19.5865 31.5875C19.5949 31.6394 19.6012 31.6932 19.6223 31.7424C19.6655 31.7364 19.6839 31.6799 19.7162 31.6532C19.7646 31.6083 19.7951 31.5332 19.8657 31.5211C19.8542 31.547 19.8389 31.5716 19.8196 31.5929C19.7323 31.6899 19.6724 31.8069 19.6054 31.9181C19.5553 31.9902 19.5769 32.0816 19.5834 32.1629C19.5907 32.1934 19.5805 32.238 19.6192 32.2509C19.6435 32.2111 19.6651 32.1696 19.6915 32.1312C19.7792 32.0924 19.7882 32.2092 19.8532 32.2368C19.9133 32.0945 19.9091 31.9358 19.9522 31.7887C19.9627 31.7831 19.9841 31.7718 19.9945 31.7664C19.9939 31.7925 19.9914 31.8188 19.9866 31.8453C19.9223 32.0486 19.8923 32.2695 19.948 32.4789C19.9516 32.5102 19.9763 32.5304 19.9975 32.5515C20.0251 32.4994 20.0316 32.4287 20.0913 32.4013C20.1344 32.3698 20.1904 32.379 20.2406 32.3755C20.2373 32.3296 20.2712 32.2687 20.235 32.2326L20.2553 32.2355C20.2553 32.1702 20.25 32.1047 20.257 32.0401C20.2683 31.9923 20.2984 31.9521 20.3261 31.9124C20.3244 31.9237 20.321 31.9462 20.3194 31.9575C20.2542 32.1646 20.2733 32.3905 20.3292 32.5978C20.3573 32.6164 20.3858 32.6347 20.414 32.6537C20.4314 32.589 20.4484 32.5246 20.4628 32.4595C20.5715 32.4372 20.6817 32.4239 20.791 32.4047C20.8323 32.4022 20.857 32.3655 20.8809 32.3369C20.9831 32.2034 21.0055 32.0319 21.074 31.8824C21.11 31.7981 21.1607 31.7055 21.2516 31.6719C21.3268 31.6448 21.3768 31.712 21.4225 31.7583C21.4703 31.6415 21.4719 31.514 21.4954 31.3916C21.5228 31.1776 21.6573 31.001 21.7654 30.8207C21.8787 30.6462 21.9664 30.4518 21.9914 30.2438C22.0012 30.0863 22.005 29.9203 21.9449 29.7716C21.886 29.8544 21.8403 29.9453 21.779 30.0265C21.5942 30.0342 21.4671 29.8567 21.4363 29.6921C21.3917 29.3628 21.4294 29.0028 21.6328 28.7285C21.674 28.6766 21.7293 28.6113 21.8035 28.6246C21.93 28.9671 22.2695 29.2205 22.6337 29.2525C22.8452 29.2739 23.0696 29.1845 23.1915 29.0076C23.2599 28.9035 23.3134 28.785 23.3186 28.6591C23.3511 28.5283 23.3035 28.3954 23.2484 28.2778C23.1732 28.1122 23.0662 27.9633 22.9785 27.8047C23.0356 27.5342 23.167 27.285 23.306 27.0478C23.0901 27.1237 22.9223 27.3012 22.8088 27.4948C22.8166 27.3736 22.8685 27.2599 22.9098 27.1471C22.9674 26.99 23.0587 26.8488 23.1397 26.7037C22.9351 26.7662 22.7918 26.9383 22.6601 27.0966C22.7319 26.8182 22.8446 26.5497 23.0074 26.3115C22.9818 26.3163 22.9552 26.3182 22.9322 26.3305C22.7261 26.4379 22.569 26.6181 22.4611 26.8207C22.3164 26.4267 22.3686 25.9995 22.4203 25.5932C22.4915 25.0246 22.5952 24.4594 22.7456 23.9062C22.8138 23.6628 22.941 23.4226 23.1588 23.2816C22.8193 23.2259 22.5049 23.564 22.5372 23.8954C22.534 23.8958 22.5277 23.8966 22.5246 23.8971C22.5229 23.7794 22.4852 23.666 22.4425 23.5577C22.3195 23.2471 22.0267 23.0071 21.6962 22.9512ZM19.1056 23.979C19.0671 24.0825 19.064 24.2126 19.1421 24.2992C19.216 24.3749 19.3358 24.372 19.429 24.3378C19.5878 24.2808 19.6927 24.1409 19.8316 24.0525C19.8996 24.0068 19.9794 23.9859 20.0595 23.9722C19.9813 23.9359 19.8862 23.9292 19.8056 23.9613C19.668 24.0143 19.5331 24.0775 19.3871 24.104C19.3274 24.1102 19.2529 24.1169 19.2133 24.0616C19.1838 23.973 19.2183 23.8833 19.2479 23.8001C19.1708 23.828 19.1327 23.9075 19.1056 23.979ZM17.9807 24.159C17.987 24.271 17.9011 24.3601 17.9001 24.4698C17.9116 24.561 17.9223 24.6527 17.9181 24.7449C17.8278 24.6592 17.8693 24.5111 17.7822 24.4218C17.6863 24.3251 17.5621 24.2529 17.4293 24.2208C17.4538 24.344 17.4085 24.4836 17.4844 24.5939C17.5296 24.6613 17.5612 24.7378 17.615 24.7996C17.6169 24.8313 17.6186 24.8634 17.6201 24.8957C17.6096 24.8961 17.5884 24.8968 17.5778 24.8972C17.5151 24.824 17.4559 24.7476 17.3905 24.6771C17.2734 24.625 17.1432 24.6769 17.0292 24.7132C17.0847 24.775 17.144 24.8342 17.1869 24.9059C17.3072 25.0855 17.4337 25.2845 17.4165 25.5102C17.4217 25.6558 17.3285 25.7807 17.2211 25.8694C17.2751 25.9469 17.3792 25.9444 17.4636 25.9522C17.5057 25.9511 17.5551 25.9588 17.5914 25.9328C17.6471 25.8679 17.6798 25.7863 17.7382 25.7236C17.7457 25.7244 17.761 25.7261 17.7686 25.7267C17.9315 25.9182 18.0781 26.123 18.2386 26.3168C18.3795 26.1995 18.4645 26.0329 18.5665 25.884C18.5852 25.8516 18.6145 25.8224 18.6204 25.7847C18.5487 25.4958 18.2149 25.3669 18.1493 25.0749C18.1081 24.8317 18.2136 24.5862 18.1548 24.3443C18.1215 24.266 18.0641 24.1868 17.9807 24.159ZM19.6728 28.0129C19.5193 28.065 19.4269 28.2079 19.3249 28.3241C19.2144 28.4601 19.055 28.5783 18.8707 28.5696C18.8815 28.6722 18.913 28.7777 18.9819 28.8574C19.0311 28.9135 19.1029 28.9419 19.175 28.9563C19.1825 28.9959 19.188 29.036 19.1907 29.0766C19.2056 29.3657 19.3203 29.6513 19.5206 29.8628C19.5377 29.8886 19.5903 29.9245 19.558 29.9568C19.4259 29.9762 19.2914 29.9725 19.1582 29.9735C19.0527 29.9729 18.9406 29.9783 18.8451 29.9255C18.6734 29.8392 18.591 29.654 18.4509 29.5315C18.3506 29.4458 18.2161 29.406 18.085 29.4256C18.1066 29.4635 18.1322 29.4996 18.1485 29.5407C18.1594 29.5985 18.1252 29.6506 18.1121 29.7051C18.1937 29.7293 18.2754 29.7541 18.3586 29.7749C18.3584 29.7983 18.3584 29.8219 18.3586 29.8459C18.2348 29.8173 18.0955 29.8041 17.9801 29.868C17.9034 29.9068 17.8561 29.9833 17.8301 30.0624C17.8766 30.0644 17.9229 30.0663 17.9696 30.0686C18.009 30.1364 18.0356 30.2105 18.0465 30.2882C18.1326 30.2021 18.203 30.1018 18.2936 30.0202C18.2905 30.1222 18.2342 30.2102 18.1761 30.2905C18.0966 30.3994 18.0176 30.5239 18.0295 30.6647C18.0863 30.6518 18.1301 30.6122 18.1799 30.5848C18.2197 30.6316 18.2624 30.6758 18.3064 30.7187C18.3736 30.6326 18.3799 30.5194 18.4137 30.4188C18.4262 30.4188 18.4518 30.4188 18.4643 30.4188C18.4528 30.5321 18.4067 30.6382 18.3919 30.7513C18.3642 30.8635 18.3655 31.0062 18.4673 31.0821C18.4844 31.0276 18.501 30.9734 18.5188 30.9194C18.5682 30.9127 18.6187 30.9146 18.6658 30.933C18.7819 30.9703 18.8859 30.8743 18.9452 30.7851C19.0001 30.6994 19.0878 30.6309 19.1934 30.6272C19.2227 30.6635 19.2571 30.6983 19.2724 30.744C19.2803 30.7911 19.2851 30.8389 19.2983 30.8854C19.41 30.8439 19.469 30.7352 19.5639 30.6712C19.7285 30.5848 19.92 30.5851 20.1013 30.5788C20.2697 30.5698 20.4094 30.4576 20.5072 30.3285C20.324 30.1566 20.1709 29.9524 20.0532 29.7309C19.9725 29.5662 19.8992 29.3822 19.9323 29.1957C19.9593 29.1175 19.9824 29.0184 20.0685 28.9851C20.1671 28.9325 20.2745 28.9961 20.3583 29.0485C20.3709 28.9363 20.3837 28.8234 20.3809 28.7106C20.3158 28.594 20.1746 28.5373 20.1179 28.4134C20.0865 28.3439 20.1198 28.2669 20.1001 28.1966C20.0932 28.2601 20.0953 28.3243 20.0898 28.3881C20.084 28.3168 20.0879 28.2455 20.1003 28.1752C19.9813 28.0801 19.8335 27.9781 19.6728 28.0129Z" fill="#DAB42D"/>
<path d="M20.0103 22.2042C20.0943 22.0922 20.2363 22.0286 20.3756 22.0288C20.3444 22.1442 20.3107 22.2614 20.3251 22.3826C20.3243 22.4693 20.3756 22.5475 20.3689 22.6345C20.2466 22.6214 20.1217 22.5782 20.0378 22.485C19.9651 22.4126 19.9605 22.2899 20.0103 22.2042Z" fill="#DAB42D"/>
<path d="M20.565 22.0323C20.6955 22.0227 20.8295 22.0799 20.9171 22.176C20.9793 22.2392 20.9889 22.3399 20.9585 22.42C20.8808 22.5671 20.7028 22.6276 20.5461 22.6422C20.6553 22.4595 20.6582 22.2221 20.565 22.0323Z" fill="#DAB42D"/>
<path d="M19.5676 22.3139C19.6005 22.2155 19.7115 22.17 19.8068 22.1562C19.7823 22.2217 19.7433 22.2866 19.7519 22.3594C19.7588 22.4556 19.8319 22.5302 19.9103 22.5788C19.9092 22.5926 19.9071 22.6199 19.9061 22.6335C19.8026 22.6274 19.6874 22.6157 19.6126 22.5354C19.55 22.4802 19.553 22.3888 19.5676 22.3139Z" fill="#DAB42D"/>
<path d="M21.1479 22.1562C21.2455 22.1686 21.3523 22.2184 21.3867 22.3175C21.4055 22.3951 21.3974 22.49 21.3289 22.5421C21.2292 22.636 21.0832 22.6291 20.9561 22.6247C21.0442 22.5726 21.1483 22.5244 21.1869 22.4218C21.2252 22.3315 21.1841 22.2391 21.1479 22.1562Z" fill="#DAB42D"/>
<path d="M11.813 22.29C12.0379 22.2923 12.2629 22.2907 12.4878 22.2909C12.4918 22.4905 12.4859 22.6903 12.491 22.8901C12.6638 22.8928 12.8368 22.8868 13.0095 22.8928C13.0209 22.8701 13.0263 22.8463 13.0259 22.8213C13.0257 22.6573 13.0238 22.4932 13.0271 22.3293C13.2404 22.3286 13.4534 22.3303 13.6666 22.3282C13.6708 22.8106 13.6697 23.2931 13.6672 23.7755C12.6432 23.7736 11.6195 23.7749 10.5957 23.7749C10.5953 23.2929 10.5932 22.8106 10.5968 22.3286C10.81 22.3293 11.0232 22.3303 11.2364 22.328C11.2406 22.45 11.2381 22.5722 11.2385 22.6945C11.24 22.7608 11.231 22.8292 11.2529 22.8934C11.4327 22.8868 11.6128 22.8924 11.7927 22.8901C11.8283 22.6922 11.7973 22.4899 11.813 22.29Z" fill="#DAB42D"/>
<path d="M20.1944 23.1814C20.3314 23.1812 20.4707 23.1666 20.6062 23.1933C20.6263 23.2027 20.669 23.1985 20.6623 23.2327C20.5499 23.2878 20.428 23.3207 20.3132 23.3704C20.2751 23.3873 20.2349 23.3985 20.1936 23.4035C20.1953 23.3293 20.1953 23.2553 20.1944 23.1814Z" fill="#DAB42D"/>
<path d="M11.1014 24.0192C11.7883 24.0202 12.4753 24.0213 13.1621 24.0186C13.201 24.1867 13.2048 24.361 13.2337 24.5312C13.4327 26.1323 13.6327 27.7333 13.8331 29.3343C13.8436 29.4693 13.8765 29.6021 13.8765 29.7381C12.7139 29.7346 11.551 29.7379 10.3884 29.7365C10.406 29.4707 10.4573 29.2081 10.481 28.943C10.6865 27.3122 10.8879 25.6805 11.093 24.0496C11.0951 24.0419 11.0993 24.0267 11.1014 24.0192ZM11.6415 25.6819C11.6357 25.7935 11.6243 25.9101 11.6547 26.0196C11.9735 26.0196 12.2923 26.0173 12.6108 26.0207C12.6381 25.9091 12.6244 25.7927 12.624 25.6792C12.6179 25.6738 12.6054 25.6628 12.5991 25.6573C12.2868 25.654 11.9739 25.6536 11.6616 25.6578C11.6566 25.6638 11.6466 25.6759 11.6415 25.6819ZM11.6528 26.7982C11.6562 26.9128 11.6533 27.0277 11.6558 27.1424C11.9777 27.1422 12.2998 27.1426 12.6217 27.142C12.632 27.0279 12.6223 26.9134 12.6286 26.7993C12.601 26.7851 12.5704 26.7791 12.5398 26.7811C12.2747 26.7818 12.0097 26.782 11.7446 26.7811C11.7127 26.7786 11.6819 26.7861 11.6528 26.7982ZM11.6359 27.9264C11.644 28.0414 11.6206 28.1598 11.6543 28.2718C11.9729 28.2725 12.2912 28.2708 12.6098 28.2729C12.6424 28.1605 12.6177 28.0424 12.6274 27.9275C12.5999 27.9129 12.57 27.9052 12.539 27.9079C12.2736 27.9079 12.0085 27.9081 11.7431 27.9079C11.7062 27.907 11.6711 27.9175 11.6359 27.9264Z" fill="#DAB42D"/>
<path d="M9.99069 30.0017C11.4174 30.0024 12.8441 30.0001 14.2709 30.003C14.2721 30.485 14.2709 30.967 14.2715 31.449C13.8911 31.4522 13.5108 31.4488 13.1304 31.4509C13.1233 31.3251 13.1407 31.1977 13.1131 31.0738C12.4588 31.0759 11.8045 31.0732 11.1502 31.0753C11.147 31.1998 11.1487 31.3243 11.1491 31.449C10.7629 31.452 10.3767 31.4495 9.99048 31.4503C9.99111 30.9674 9.99069 30.4846 9.99069 30.0017Z" fill="#DAB42D"/>
<path d="M30.2099 19.0028C32.0276 19.0026 33.8454 19.0028 35.6631 19.0028C36.7503 18.9951 37.8428 19.0385 38.9155 19.2262C39.7173 19.3709 40.5201 19.5937 41.2215 20.0177C41.5558 20.2215 41.8622 20.4753 42.1072 20.7811C42.3284 21.0531 42.4979 21.3655 42.6122 21.6961C42.762 22.1298 42.8156 22.5918 42.8093 23.0487C42.8009 23.4309 42.7452 23.8144 42.6139 24.1748C42.4742 24.5684 42.2432 24.928 41.9493 25.2252C41.4314 25.7431 40.7519 26.0662 40.0585 26.2813C39.8918 26.3363 39.7196 26.3716 39.5523 26.4229C40.3335 26.5697 41.1143 26.8014 41.7862 27.2357C42.1091 27.4468 42.4019 27.7079 42.6298 28.0197C42.8392 28.3003 42.9928 28.62 43.0943 28.9542C43.2221 29.3784 43.2661 29.8241 43.2573 30.2659C43.2479 30.7535 43.1758 31.2437 43.0062 31.7028C42.7848 32.3189 42.3699 32.8606 41.84 33.2462C41.2242 33.6972 40.4901 33.9575 39.7485 34.1168C39.1755 34.238 38.5911 34.3027 38.0061 34.3302C37.5745 34.3561 37.142 34.3444 36.7099 34.3469C35.5439 34.3469 34.3778 34.3469 33.2118 34.3469C32.2105 34.3444 31.2089 34.3521 30.2078 34.3431C30.2124 29.2297 30.208 24.1162 30.2099 19.0028ZM34.3449 21.791C34.3434 22.9334 34.3451 24.0758 34.344 25.2179C34.6574 25.2186 34.9707 25.2181 35.2842 25.2184C35.8292 25.2121 36.3775 25.2438 36.9185 25.1618C37.3202 25.1013 37.7307 24.9979 38.0635 24.7551C38.3494 24.5507 38.5381 24.2272 38.5987 23.8841C38.6701 23.4932 38.646 23.0688 38.451 22.715C38.2786 22.4049 37.9783 22.184 37.653 22.0528C37.1895 21.8626 36.6837 21.8067 36.1865 21.791C35.5726 21.7906 34.9588 21.7902 34.3449 21.791ZM34.344 27.8696C34.3459 29.0977 34.3417 30.326 34.3461 31.5541C34.8545 31.5507 35.3628 31.5536 35.8711 31.5528C36.4332 31.5566 37.0012 31.5307 37.5483 31.3926C37.9178 31.2971 38.2899 31.1373 38.5425 30.8416C38.796 30.5525 38.9003 30.1635 38.9149 29.7866C38.9319 29.4201 38.8651 29.0367 38.6529 28.7301C38.4441 28.4242 38.1123 28.2239 37.7659 28.1071C37.2124 27.9167 36.6211 27.8806 36.0401 27.8691C35.4746 27.8698 34.9093 27.8689 34.344 27.8696Z" fill="#A42A25"/>
<path d="M44.7111 19.0037C46.9376 19.0016 49.1644 19.0034 51.3912 19.0028C52.1113 18.9951 52.8343 19.0183 53.547 19.1296C54.146 19.2227 54.7394 19.3741 55.2952 19.6183C55.7954 19.838 56.2641 20.1366 56.6533 20.5206C57.0221 20.8808 57.313 21.3178 57.5124 21.7917C57.695 22.2251 57.8035 22.6871 57.8555 23.1535C57.9212 23.7429 57.9106 24.3411 57.8171 24.927C57.7457 25.3615 57.6207 25.7884 57.4326 26.1874C57.043 27.0249 56.3565 27.7075 55.5455 28.1453C55.1036 28.3864 54.6263 28.5598 54.1368 28.6768C53.4792 28.8374 52.8006 28.8943 52.1251 28.9031C51.0852 28.9037 50.0456 28.9033 49.0059 28.9033C49.0046 30.658 49.0055 32.4128 49.0055 34.1673C49.004 34.2272 49 34.2873 48.9981 34.3475C47.5697 34.3475 46.1413 34.345 44.7129 34.3486C44.705 33.4678 44.7119 32.5865 44.7096 31.7057C44.7106 27.4716 44.7077 23.2377 44.7111 19.0037ZM49.0059 21.8743C49.0044 23.2113 49.0061 24.5484 49.0051 25.8856C49.5982 25.886 50.1913 25.8856 50.7845 25.8858C51.1621 25.891 51.5418 25.8723 51.9134 25.7999C52.2221 25.7388 52.5285 25.6405 52.7953 25.4705C52.9968 25.3433 53.1707 25.1706 53.2928 24.9658C53.4534 24.7034 53.5296 24.3976 53.555 24.0935C53.5784 23.7277 53.56 23.3506 53.4247 23.0056C53.3083 22.6965 53.0839 22.4295 52.7989 22.2614C52.5264 22.0981 52.2169 22.0078 51.906 21.951C51.5012 21.8772 51.0884 21.8689 50.6781 21.8741C50.1208 21.8741 49.5632 21.8741 49.0059 21.8743Z" fill="#A42A25"/>
<path d="M59.3159 19.0064C60.7399 18.9988 62.1646 19.0047 63.5888 19.0034C63.5892 23.7248 63.5888 28.4461 63.589 33.1676C63.5902 33.5595 63.5863 33.9514 63.5909 34.3434C62.1664 34.3519 60.7416 34.3452 59.317 34.3467C59.3159 29.2332 59.3182 24.1198 59.3159 19.0064Z" fill="#A42A25"/>
<rect x="0.5" y="0.5" width="69" height="49" rx="2.5" stroke="#E6E7E8"/>
</svg>
