<svg width="66" height="46" viewBox="0 0 66 46" fill="none" xmlns="http://www.w3.org/2000/svg">
<path d="M3 0.5H63C64.3807 0.5 65.5 1.61929 65.5 3V43C65.5 44.3807 64.3807 45.5 63 45.5H3C1.61929 45.5 0.5 44.3807 0.5 43V3C0.5 1.61929 1.61929 0.5 3 0.5Z" stroke="#E6E7E8"/>
<path fill-rule="evenodd" clip-rule="evenodd" d="M42.7528 12C42.521 12.0006 42.2899 12.0085 42.0624 12.0345C41.1723 12.1358 40.335 12.5806 39.7336 13.267C39.2874 13.7762 38.9777 14.4068 38.8463 15.081C38.7815 15.4139 38.7733 15.7476 38.7733 16.0849V18.3238V19.4091V19.728C38.7733 19.8134 38.7535 19.8201 38.8445 19.8201H40.2687H41.6876H43.1153C43.5813 19.8201 44.0511 19.8019 44.5158 19.8456C44.9736 19.8887 45.4397 20.0238 45.81 20.3152C46.3306 20.7251 46.5423 21.4323 46.3643 22.0827C46.1936 22.7072 45.6815 23.1259 45.0962 23.2997C45.0314 23.3189 44.9658 23.3355 44.8998 23.3495C44.8615 23.3578 44.8098 23.3562 44.775 23.373C44.7578 23.3812 44.7141 23.3915 44.7461 23.423C44.7542 23.4309 44.7881 23.4308 44.813 23.4306C44.8233 23.4305 44.832 23.4305 44.837 23.4309C45.0207 23.4492 45.2034 23.4822 45.3817 23.5326C45.9267 23.6865 46.4558 24.0175 46.7084 24.5609C47.0073 25.2039 46.8549 26.0003 46.372 26.4991C45.9918 26.8921 45.4609 27.0926 44.9355 27.1591C44.6719 27.1923 44.4066 27.1855 44.1417 27.1855H42.7141H41.2865H39.8674H39.1536H38.9752C38.9345 27.1855 38.8195 27.1646 38.7861 27.1855C38.7666 27.1978 38.7733 27.2156 38.7733 27.2481V28.6144V31.0255V33.4619V34.904C38.7733 34.9185 38.7638 34.9818 38.7733 34.9934C38.7846 35.0072 38.8803 34.9951 38.9038 34.9951H39.0823H39.7961H41.2151H42.6427H44.0657C44.9135 34.9951 45.7207 34.7673 46.4077 34.2349C47.3395 33.5129 47.8899 32.3651 47.8946 31.1604C47.8948 31.1138 47.8949 31.0671 47.8949 31.0205V30.9523C47.8948 30.8492 47.8946 30.746 47.8946 30.6428V29.3729C47.8946 28.7581 47.8946 28.1434 47.8946 27.5287C47.8946 26.7735 47.8946 26.0184 47.8946 25.2632C47.8946 24.43 47.8946 23.5966 47.8946 22.7633C47.8946 21.901 47.8946 21.0387 47.8946 20.1764C47.8946 19.3448 47.8946 18.5134 47.8946 17.6818C47.8946 16.9403 47.8946 16.199 47.8946 15.4575C47.8946 14.856 47.8946 14.2544 47.8946 13.6529V12.4513C47.8946 12.3046 47.8946 12.1579 47.8946 12.0111H47.88C47.4265 12.0119 46.9727 12.0111 46.5191 12.0111H45.0962H43.6685C43.3865 12.0111 43.0998 12.0008 42.814 12H42.7528ZM40.5582 20.9839C40.5466 21.0104 40.5582 21.0689 40.5582 21.0974V22.1171V22.5936C40.5582 22.6334 40.5398 22.7702 40.5678 22.7905C40.5917 22.8077 40.6955 22.7905 40.7263 22.7905H40.8976H41.2273H41.8821C42.0972 22.7905 42.3127 22.7944 42.5276 22.7905C42.7939 22.7856 43.0519 22.706 43.2412 22.5106C43.4554 22.2897 43.532 21.9646 43.4668 21.6664C43.4371 21.5345 43.3799 21.4108 43.2954 21.305C43.1332 21.1024 42.8917 20.9901 42.636 20.9693C42.5145 20.9595 42.3919 20.964 42.2701 20.964H41.6153H40.9477H40.6227C40.6051 20.964 40.5934 20.9624 40.5849 20.9624C40.5719 20.9624 40.5662 20.966 40.5582 20.9839ZM41.965 23.9868H40.5578C40.5578 24.0056 40.5578 24.0244 40.5578 24.0432V25.0631V25.6653V25.8851C40.5578 25.9165 40.5453 25.9828 40.5578 26.0116C40.5768 26.0552 40.7516 26.0306 40.8076 26.0306H41.1638H41.8674H42.5749C42.8048 26.0306 43.0254 26.0159 43.2292 25.8897C43.4768 25.7364 43.6455 25.4687 43.6879 25.1704C43.7364 24.8294 43.6263 24.4765 43.3805 24.245C43.1816 24.0577 42.9349 23.9889 42.6726 23.9868C42.5939 23.9861 42.5152 23.9859 42.4366 23.9859C42.2794 23.9859 42.1221 23.9868 41.965 23.9868Z" fill="url(#paint0_linear_2694_669)"/>
<mask id="mask0_2694_669" style="mask-type:alpha" maskUnits="userSpaceOnUse" x="38" y="12" width="10" height="23">
<path fill-rule="evenodd" clip-rule="evenodd" d="M42.7528 12C42.521 12.0006 42.2899 12.0085 42.0624 12.0345C41.1723 12.1358 40.335 12.5806 39.7336 13.267C39.2874 13.7762 38.9777 14.4068 38.8463 15.081C38.7815 15.4139 38.7733 15.7476 38.7733 16.0849V18.3238V19.4091V19.728C38.7733 19.8134 38.7535 19.8201 38.8445 19.8201H40.2687H41.6876H43.1153C43.5813 19.8201 44.0511 19.8019 44.5158 19.8456C44.9736 19.8887 45.4397 20.0238 45.81 20.3152C46.3306 20.7251 46.5423 21.4323 46.3643 22.0827C46.1936 22.7072 45.6815 23.1259 45.0962 23.2997C45.0314 23.3189 44.9658 23.3355 44.8998 23.3495C44.8615 23.3578 44.8098 23.3562 44.775 23.373C44.7578 23.3812 44.7141 23.3915 44.7461 23.423C44.7542 23.4309 44.7881 23.4308 44.813 23.4306C44.8233 23.4305 44.832 23.4305 44.837 23.4309C45.0207 23.4492 45.2034 23.4822 45.3817 23.5326C45.9267 23.6865 46.4558 24.0175 46.7084 24.5609C47.0073 25.2039 46.8549 26.0003 46.372 26.4991C45.9918 26.8921 45.4609 27.0926 44.9355 27.1591C44.6719 27.1923 44.4066 27.1855 44.1417 27.1855H42.7141H41.2865H39.8674H39.1536H38.9752C38.9345 27.1855 38.8195 27.1646 38.7861 27.1855C38.7666 27.1978 38.7733 27.2156 38.7733 27.2481V28.6144V31.0255V33.4619V34.904C38.7733 34.9185 38.7638 34.9818 38.7733 34.9934C38.7846 35.0072 38.8803 34.9951 38.9038 34.9951H39.0823H39.7961H41.2151H42.6427H44.0657C44.9135 34.9951 45.7207 34.7673 46.4077 34.2349C47.3395 33.5129 47.8899 32.3651 47.8946 31.1604C47.8948 31.1138 47.8949 31.0671 47.8949 31.0205V30.9523C47.8948 30.8492 47.8946 30.746 47.8946 30.6428V29.3729C47.8946 28.7581 47.8946 28.1434 47.8946 27.5287C47.8946 26.7735 47.8946 26.0184 47.8946 25.2632C47.8946 24.43 47.8946 23.5966 47.8946 22.7633C47.8946 21.901 47.8946 21.0387 47.8946 20.1764C47.8946 19.3448 47.8946 18.5134 47.8946 17.6818C47.8946 16.9403 47.8946 16.199 47.8946 15.4575C47.8946 14.856 47.8946 14.2544 47.8946 13.6529V12.4513C47.8946 12.3046 47.8946 12.1579 47.8946 12.0111H47.88C47.4265 12.0119 46.9727 12.0111 46.5191 12.0111H45.0962H43.6685C43.3865 12.0111 43.0998 12.0008 42.814 12H42.7528ZM40.5582 20.9839C40.5466 21.0104 40.5582 21.0689 40.5582 21.0974V22.1171V22.5936C40.5582 22.6334 40.5398 22.7702 40.5678 22.7905C40.5917 22.8077 40.6955 22.7905 40.7263 22.7905H40.8976H41.2273H41.8821C42.0972 22.7905 42.3127 22.7944 42.5276 22.7905C42.7939 22.7856 43.0519 22.706 43.2412 22.5106C43.4554 22.2897 43.532 21.9646 43.4668 21.6664C43.4371 21.5345 43.3799 21.4108 43.2954 21.305C43.1332 21.1024 42.8917 20.9901 42.636 20.9693C42.5145 20.9595 42.3919 20.964 42.2701 20.964H41.6153H40.9477H40.6227C40.6051 20.964 40.5934 20.9624 40.5849 20.9624C40.5719 20.9624 40.5662 20.966 40.5582 20.9839ZM41.965 23.9868H40.5578C40.5578 24.0056 40.5578 24.0244 40.5578 24.0432V25.0631V25.6653V25.8851C40.5578 25.9165 40.5453 25.9828 40.5578 26.0116C40.5768 26.0552 40.7516 26.0306 40.8076 26.0306H41.1638H41.8674H42.5749C42.8048 26.0306 43.0254 26.0159 43.2292 25.8897C43.4768 25.7364 43.6455 25.4687 43.6879 25.1704C43.7364 24.8294 43.6263 24.4765 43.3805 24.245C43.1816 24.0577 42.9349 23.9889 42.6726 23.9868C42.5939 23.9861 42.5152 23.9859 42.4366 23.9859C42.2794 23.9859 42.1221 23.9868 41.965 23.9868Z" fill="white"/>
</mask>
<g mask="url(#mask0_2694_669)">
</g>
<path fill-rule="evenodd" clip-rule="evenodd" d="M21.1354 12.0512C20.6043 12.1395 20.0944 12.349 19.6489 12.6577C18.6224 13.3693 18.0081 14.5742 18.0036 15.8421C18.0023 16.2148 18.0036 16.5876 18.0036 16.9605V19.3348V22.0953V24.3723V25.0595V25.2409C18.0036 25.3112 18.0029 25.2965 18.081 25.3345C18.1677 25.3767 18.2549 25.4177 18.3426 25.4576C19.0421 25.7752 19.7799 26.0169 20.5413 26.1121C21.0887 26.1805 21.6731 26.1995 22.1901 25.9758C22.6041 25.7966 22.9342 25.4659 23.1037 25.0371C23.2128 24.7615 23.244 24.4704 23.244 24.1756V20.9077V20.172V19.9373C23.244 19.9138 23.2311 19.8406 23.244 19.8209C23.2602 19.7964 23.3882 19.8121 23.425 19.8121H23.7039H24.2539H26.4613V19.8794V23.1055C26.4613 23.4842 26.4621 23.8631 26.4613 24.2418C26.4606 24.683 26.3974 25.1259 26.2212 25.5314C26.0457 25.9357 25.7641 26.277 25.4161 26.5368C24.5719 27.1673 23.4533 27.3316 22.4331 27.3789C21.7032 27.4127 20.9704 27.3835 20.2437 27.3091C19.4927 27.2323 18.733 27.1181 18.0036 26.9167V27.1783V28.9721V31.5892V33.9533V34.7055V34.9166C18.0036 34.9278 17.9955 34.9833 18.0036 34.9924C18.0188 35.0095 18.1571 34.9925 18.1844 34.9925H18.3693H18.7478H19.4961H20.996H22.4964C23.1325 34.9925 23.785 35.0374 24.4068 34.8763C25.494 34.5949 26.4178 33.8073 26.8881 32.7645C27.1462 32.1922 27.2308 31.5838 27.2308 30.9605V29.9335V28.2031V25.9608V23.4085V20.7165V18.0855V15.7159V13.7792V12.4769V12.0003H26.8579H25.2992H23.7399H22.1854C22.1161 12.0003 22.047 12 21.9778 12C21.6961 12 21.415 12.0047 21.1354 12.0512Z" fill="url(#paint1_linear_2694_669)"/>
<mask id="mask1_2694_669" style="mask-type:alpha" maskUnits="userSpaceOnUse" x="18" y="12" width="10" height="23">
<path fill-rule="evenodd" clip-rule="evenodd" d="M21.1354 12.0512C20.6043 12.1395 20.0944 12.349 19.6489 12.6577C18.6224 13.3693 18.0081 14.5742 18.0036 15.8421C18.0023 16.2148 18.0036 16.5876 18.0036 16.9605V19.3348V22.0953V24.3723V25.0595V25.2409C18.0036 25.3112 18.0029 25.2965 18.081 25.3345C18.1677 25.3767 18.2549 25.4177 18.3426 25.4576C19.0421 25.7752 19.7799 26.0169 20.5413 26.1121C21.0887 26.1805 21.6731 26.1995 22.1901 25.9758C22.6041 25.7966 22.9342 25.4659 23.1037 25.0371C23.2128 24.7615 23.244 24.4704 23.244 24.1756V20.9077V20.172V19.9373C23.244 19.9138 23.2311 19.8406 23.244 19.8209C23.2602 19.7964 23.3882 19.8121 23.425 19.8121H23.7039H24.2539H26.4613V19.8794V23.1055C26.4613 23.4842 26.4621 23.8631 26.4613 24.2418C26.4606 24.683 26.3974 25.1259 26.2212 25.5314C26.0457 25.9357 25.7641 26.277 25.4161 26.5368C24.5719 27.1673 23.4533 27.3316 22.4331 27.3789C21.7032 27.4127 20.9704 27.3835 20.2437 27.3091C19.4927 27.2323 18.733 27.1181 18.0036 26.9167V27.1783V28.9721V31.5892V33.9533V34.7055V34.9166C18.0036 34.9278 17.9955 34.9833 18.0036 34.9924C18.0188 35.0095 18.1571 34.9925 18.1844 34.9925H18.3693H18.7478H19.4961H20.996H22.4964C23.1325 34.9925 23.785 35.0374 24.4068 34.8763C25.494 34.5949 26.4178 33.8073 26.8881 32.7645C27.1462 32.1922 27.2308 31.5838 27.2308 30.9605V29.9335V28.2031V25.9608V23.4085V20.7165V18.0855V15.7159V13.7792V12.4769V12.0003H26.8579H25.2992H23.7399H22.1854C22.1161 12.0003 22.047 12 21.9778 12C21.6961 12 21.415 12.0047 21.1354 12.0512Z" fill="white"/>
</mask>
<g mask="url(#mask1_2694_669)">
</g>
<path fill-rule="evenodd" clip-rule="evenodd" d="M31.8511 12.0095C31.4511 12.0356 31.0553 12.1287 30.6845 12.2861C29.8671 12.6333 29.1875 13.2815 28.787 14.0948C28.5248 14.6273 28.3923 15.2192 28.3899 15.8158C28.3895 15.9124 28.3899 16.0089 28.3899 16.1056V17.7984V20.8079C28.4148 20.7857 28.4404 20.7639 28.4664 20.7422C28.5579 20.6658 28.6533 20.5944 28.7514 20.5274C29.3627 20.1108 30.0759 19.8775 30.7915 19.7397C31.374 19.6276 31.9671 19.5794 32.5591 19.5677C33.1415 19.5563 33.7256 19.5767 34.3048 19.6414C34.8959 19.7072 35.4833 19.81 36.0645 19.9385C36.1359 19.9543 36.2071 19.9705 36.2783 19.9873C36.3164 19.9963 36.4624 20.0086 36.4826 20.0387C36.4971 20.0602 36.4826 20.1461 36.4826 20.171V20.4814V21.6515C36.4001 21.6086 36.3171 21.5665 36.2334 21.5258C35.6011 21.2175 34.9346 20.9885 34.2429 20.8759C33.3135 20.7245 32.2618 20.7287 31.4592 21.3022C30.6845 21.8558 30.4134 22.8381 30.4971 23.7722C30.5786 24.6813 31.0661 25.4607 31.8867 25.8241C32.6976 26.1831 33.6384 26.1348 34.4876 25.9616C35.1842 25.8196 35.8485 25.5594 36.4826 25.2332V25.3487V26.7125C36.4826 26.7379 36.4973 26.8241 36.4826 26.8459C36.4628 26.8752 36.3147 26.8877 36.2783 26.8963C36.1301 26.9312 35.9813 26.9639 35.8323 26.9948C35.2468 27.1163 34.6552 27.2127 34.0601 27.2676C33.4776 27.3214 32.8893 27.332 32.305 27.3092C31.7086 27.2862 31.1115 27.2228 30.5282 27.0895C29.7593 26.9139 28.994 26.6118 28.3899 26.0773V26.3285V28.0849V30.7054V33.2566V34.7694C28.3899 34.7873 28.3784 34.862 28.3899 34.8764C28.4148 34.9076 28.6223 34.882 28.6709 34.882H29.4283H30.9512H32.466C33.0006 34.882 33.5446 34.9114 34.078 34.8721C35.0451 34.8009 35.9611 34.3295 36.5987 33.5758C37.2094 32.8539 37.5106 31.9403 37.5106 30.9881V30.1341V28.5016V26.2965V23.7234V20.9974V18.3007V15.8572V13.8515V12.4982V12.0017H37.231H34.8795H32.5373C32.4265 12.0017 32.3154 12 32.2044 12C32.0865 12 31.9685 12.0019 31.8511 12.0095Z" fill="url(#paint2_linear_2694_669)"/>
<mask id="mask2_2694_669" style="mask-type:alpha" maskUnits="userSpaceOnUse" x="28" y="12" width="10" height="23">
<path fill-rule="evenodd" clip-rule="evenodd" d="M31.8511 12.0095C31.4511 12.0356 31.0553 12.1287 30.6845 12.2861C29.8671 12.6333 29.1875 13.2815 28.787 14.0948C28.5248 14.6273 28.3923 15.2192 28.3899 15.8158C28.3895 15.9124 28.3899 16.0089 28.3899 16.1056V17.7984V20.8079C28.4148 20.7857 28.4404 20.7639 28.4664 20.7422C28.5579 20.6658 28.6533 20.5944 28.7514 20.5274C29.3627 20.1108 30.0759 19.8775 30.7915 19.7397C31.374 19.6276 31.9671 19.5794 32.5591 19.5677C33.1415 19.5563 33.7256 19.5767 34.3048 19.6414C34.8959 19.7072 35.4833 19.81 36.0645 19.9385C36.1359 19.9543 36.2071 19.9705 36.2783 19.9873C36.3164 19.9963 36.4624 20.0086 36.4826 20.0387C36.4971 20.0602 36.4826 20.1461 36.4826 20.171V20.4814V21.6515C36.4001 21.6086 36.3171 21.5665 36.2334 21.5258C35.6011 21.2175 34.9346 20.9885 34.2429 20.8759C33.3135 20.7245 32.2618 20.7287 31.4592 21.3022C30.6845 21.8558 30.4134 22.8381 30.4971 23.7722C30.5786 24.6813 31.0661 25.4607 31.8867 25.8241C32.6976 26.1831 33.6384 26.1348 34.4876 25.9616C35.1842 25.8196 35.8485 25.5594 36.4826 25.2332V25.3487V26.7125C36.4826 26.7379 36.4973 26.8241 36.4826 26.8459C36.4628 26.8752 36.3147 26.8877 36.2783 26.8963C36.1301 26.9312 35.9813 26.9639 35.8323 26.9948C35.2468 27.1163 34.6552 27.2127 34.0601 27.2676C33.4776 27.3214 32.8893 27.332 32.305 27.3092C31.7086 27.2862 31.1115 27.2228 30.5282 27.0895C29.7593 26.9139 28.994 26.6118 28.3899 26.0773V26.3285V28.0849V30.7054V33.2566V34.7694C28.3899 34.7873 28.3784 34.862 28.3899 34.8764C28.4148 34.9076 28.6223 34.882 28.6709 34.882H29.4283H30.9512H32.466C33.0006 34.882 33.5446 34.9114 34.078 34.8721C35.0451 34.8009 35.9611 34.3295 36.5987 33.5758C37.2094 32.8539 37.5106 31.9403 37.5106 30.9881V30.1341V28.5016V26.2965V23.7234V20.9974V18.3007V15.8572V13.8515V12.4982V12.0017H37.231H34.8795H32.5373C32.4265 12.0017 32.3154 12 32.2044 12C32.0865 12 31.9685 12.0019 31.8511 12.0095Z" fill="white"/>
</mask>
<g mask="url(#mask2_2694_669)">
</g>
<defs>
<linearGradient id="paint0_linear_2694_669" x1="47.8949" y1="11.0053" x2="39.0775" y2="11.0053" gradientUnits="userSpaceOnUse">
<stop stop-color="#43C311"/>
<stop offset="1" stop-color="#288C00"/>
</linearGradient>
<linearGradient id="paint1_linear_2694_669" x1="18.0238" y1="35.0575" x2="27.3469" y2="35.0575" gradientUnits="userSpaceOnUse">
<stop stop-color="#21469E"/>
<stop offset="1" stop-color="#1E81EB"/>
</linearGradient>
<linearGradient id="paint2_linear_2694_669" x1="37.5106" y1="12" x2="28.3848" y2="12" gradientUnits="userSpaceOnUse">
<stop stop-color="#F42D3E"/>
<stop offset="1" stop-color="#9C0017"/>
</linearGradient>
</defs>
</svg>
