<svg width="66" height="46" viewBox="0 0 66 46" fill="none" xmlns="http://www.w3.org/2000/svg">
<path d="M0.5 3C0.5 1.61929 1.61929 0.5 3 0.5H63C64.3807 0.5 65.5 1.61929 65.5 3V43C65.5 44.3807 64.3807 45.5 63 45.5H3C1.61929 45.5 0.5 44.3807 0.5 43V3Z" fill="white" stroke="#E6E7E8"/>
<g opacity="0.01">
<rect x="13" y="10" width="39.8152" height="25.9701" fill="white"/>
</g>
<rect x="27.6577" y="14.5244" width="10.503" height="16.9179" fill="#FF5F00"/>
<path fill-rule="evenodd" clip-rule="evenodd" d="M28.7396 22.9848C28.737 19.684 30.2734 16.5653 32.9063 14.5274C28.4335 11.0607 22.0104 11.5657 18.1509 15.6873C14.2915 19.809 14.2915 26.1636 18.1509 30.2853C22.0104 34.407 28.4335 34.9119 32.9063 31.4453C30.2726 29.4067 28.736 26.2867 28.7396 22.9848Z" fill="#EB001B"/>
<path fill-rule="evenodd" clip-rule="evenodd" d="M49.5362 29.3793V30.0824H49.4628V29.3793H49.3062V29.2339H49.7028V29.3793H49.5362ZM50.3062 29.2339V30.0824H50.2228V29.4399L50.0928 29.9915H50.0028L49.8728 29.4399V30.0824H49.7862V29.2339H49.9062L50.0462 29.8399L50.1862 29.2339H50.3062Z" fill="#F79E1B"/>
<path fill-rule="evenodd" clip-rule="evenodd" d="M50.5578 22.9851C50.5577 27.1043 48.1727 30.8618 44.4159 32.6618C40.659 34.4619 36.1898 33.9884 32.9062 31.4426C35.5379 29.4028 37.0745 26.2846 37.0745 22.9836C37.0745 19.6826 35.5379 16.5643 32.9062 14.5246C36.1898 11.9787 40.659 11.5053 44.4159 13.3053C48.1727 15.1054 50.5577 18.8629 50.5578 22.9821V22.9851Z" fill="#F79E1B"/>
</svg>
