<svg width="66" height="46" viewBox="0 0 66 46" fill="none" xmlns="http://www.w3.org/2000/svg">
<path d="M0.5 3C0.5 1.61929 1.61929 0.5 3 0.5H63C64.3807 0.5 65.5 1.61929 65.5 3V43C65.5 44.3807 64.3807 45.5 63 45.5H3C1.61929 45.5 0.5 44.3807 0.5 43V3Z" fill="white" stroke="#E6E7E8"/>
<path fill-rule="evenodd" clip-rule="evenodd" d="M30.0224 29.7442H26.4827L28.6966 16.4121H32.2361L30.0224 29.7442Z" fill="#0742A6"/>
<path fill-rule="evenodd" clip-rule="evenodd" d="M42.8541 16.738C42.1559 16.4683 41.0485 16.1704 39.6792 16.1704C36.1837 16.1704 33.7221 17.9858 33.707 20.5811C33.678 22.496 35.4694 23.5596 36.8093 24.1981C38.1787 24.8505 38.6443 25.2763 38.6443 25.8579C38.6303 26.751 37.5377 27.1628 36.5185 27.1628C35.1053 27.1628 34.3481 26.9505 33.1974 26.4536L32.7313 26.2406L32.2359 29.2333C33.0661 29.6017 34.5957 29.9286 36.1837 29.9429C39.8978 29.9429 42.3158 28.1556 42.3444 25.3898C42.3585 23.8721 41.4126 22.7092 39.3732 21.7589C38.1352 21.1489 37.377 20.7376 37.377 20.1135C37.3915 19.546 38.0183 18.9649 39.4158 18.9649C40.5665 18.9364 41.412 19.2058 42.0525 19.4754L42.3727 19.6169L42.8541 16.738Z" fill="#0742A6"/>
<path fill-rule="evenodd" clip-rule="evenodd" d="M49.19 16.4121H51.9279L54.7836 29.744H51.5062C51.5062 29.744 51.1854 28.2122 51.0838 27.7441H46.5391C46.4077 28.0985 45.7962 29.744 45.7962 29.744H42.0821L47.3399 17.5182C47.7042 16.653 48.3457 16.4121 49.19 16.4121ZM48.9718 21.2909C48.9718 21.2909 47.8501 24.2552 47.5586 25.0211H50.5008C50.3552 24.3545 49.6849 21.1633 49.6849 21.1633L49.4375 20.0145C49.3334 20.3103 49.1827 20.717 49.0811 20.9913C49.0122 21.1773 48.9659 21.3024 48.9718 21.2909Z" fill="#0742A6"/>
<path fill-rule="evenodd" clip-rule="evenodd" d="M23.5262 16.4121L20.0596 25.5033L19.6808 23.6595C19.04 21.532 17.03 19.2205 14.787 18.0711L17.9622 29.7301H21.7053L27.2691 16.4121H23.5262Z" fill="#0742A6"/>
<path fill-rule="evenodd" clip-rule="evenodd" d="M16.8407 16.4121H11.1457L11.0874 16.6815C15.5299 17.7878 18.472 20.4541 19.6808 23.6595L18.4428 17.5328C18.239 16.6813 17.6126 16.4402 16.8407 16.4121Z" fill="#0742A6"/>
</svg>
